<?xml version="1.0" encoding="UTF-8" standalone="no"?>
<!-- Created with Inkscape (http://www.inkscape.org/) -->

<svg
   xmlns:dc="http://purl.org/dc/elements/1.1/"
   xmlns:cc="http://creativecommons.org/ns#"
   xmlns:rdf="http://www.w3.org/1999/02/22-rdf-syntax-ns#"
   xmlns:svg="http://www.w3.org/2000/svg"
   xmlns="http://www.w3.org/2000/svg"
   xmlns:sodipodi="http://sodipodi.sourceforge.net/DTD/sodipodi-0.dtd"
   xmlns:inkscape="http://www.inkscape.org/namespaces/inkscape"
   width="42.333332mm"
   height="21.66626mm"
   viewBox="0 0 150 76.770204"
   id="svg8162"
   version="1.1"
   inkscape:version="0.91 r13725"
   sodipodi:docname="airbitz.svg"
   inkscape:export-filename="/media/data/ari/trabajo/libbitcoin/libbitcoin/img/bg-btc-satoshi.png"
   inkscape:export-xdpi="84"
   inkscape:export-ydpi="84">
  <defs
     id="defs8164">
    <clipPath
       clipPathUnits="userSpaceOnUse"
       id="clipPath5836">
      <rect
         inkscape:export-ydpi="84.150002"
         inkscape:export-xdpi="84.150002"
         y="-1821.4224"
         x="1501.5691"
         height="383.14114"
         width="1352"
         id="rect5838"
         style="fill:#855f04;fill-opacity:1;stroke:none;stroke-width:0.5;stroke-miterlimit:4;stroke-dasharray:none" />
    </clipPath>
    <clipPath
       clipPathUnits="userSpaceOnUse"
       id="clipPath10288">
      <rect
         style="fill:#4d4d4d;fill-opacity:1;stroke:none;stroke-width:0.5;stroke-miterlimit:4;stroke-dasharray:none"
         id="rect10290"
         width="1352"
         height="505.16321"
         x="2284"
         y="239.03357" />
    </clipPath>
  </defs>
  <sodipodi:namedview
     id="base"
     pagecolor="#ffffff"
     bordercolor="#666666"
     borderopacity="1.0"
     inkscape:pageopacity="0.0"
     inkscape:pageshadow="2"
     inkscape:zoom="0.175"
     inkscape:cx="2323.2403"
     inkscape:cy="-1731.3623"
     inkscape:document-units="px"
     inkscape:current-layer="layer1"
     showgrid="false"
     fit-margin-top="0"
     fit-margin-left="0"
     fit-margin-right="0"
     fit-margin-bottom="0"
     inkscape:window-width="1920"
     inkscape:window-height="1016"
     inkscape:window-x="0"
     inkscape:window-y="27"
     inkscape:window-maximized="1" />
  <metadata
     id="metadata8167">
    <rdf:RDF>
      <cc:Work
         rdf:about="">
        <dc:format>image/svg+xml</dc:format>
        <dc:type
           rdf:resource="http://purl.org/dc/dcmitype/StillImage" />
        <dc:title></dc:title>
      </cc:Work>
    </rdf:RDF>
  </metadata>
  <g
     inkscape:label="Capa 1"
     inkscape:groupmode="layer"
     id="layer1"
     transform="translate(6998.37,5249.8238)">
    <path
       style="fill:#f2f2f2;fill-opacity:1"
       d="m -6996.1439,-5173.3443 c -0.3435,-0.139 -0.9847,-0.6807 -1.425,-1.204 l -0.8005,-0.9514 0,-21.3056 c 0,-23.4236 -0.084,-22.3377 1.8119,-23.4576 0.755,-0.446 3.7557,-0.4906 32.9593,-0.4906 l 32.1286,0 0,3.5514 0,3.5514 -1.7249,0.2736 -1.725,0.2735 -0.078,16.4807 c -0.059,12.6462 0.01,16.5329 0.2856,16.7052 0.1998,0.1235 1.011,0.3136 1.8026,0.4224 l 1.4393,0.198 0,3.1218 0,3.1219 -32.0249,-0.019 c -17.6137,-0.01 -32.306,-0.1327 -32.6494,-0.2717 z m 17.7244,-5.745 c 0.66,-0.1828 1.5799,-0.6024 2.0442,-0.9324 l 0.8442,-0.6001 0.1658,0.6341 c 0.1547,0.5915 0.365,0.6341 3.1308,0.6341 1.6308,0 2.965,-0.1135 2.965,-0.2522 0,-0.1387 -0.2629,-1.5225 -0.5842,-3.075 -1.0204,-4.9296 -1.3095,-8.9793 -1.1053,-15.4856 l 0.1903,-6.0628 -1.9104,-0.5901 c -4.3367,-1.3395 -8.0624,-1.113 -11.7877,0.7166 -2.2873,1.1233 -4.737,3.4603 -5.7892,5.5228 -2.4096,4.7232 -2.0662,11.7908 0.7604,15.6543 2.4256,3.3152 7.1054,4.9361 11.0761,3.8363 z m -4.863,-5.3537 c -2.1481,-1.3098 -3.212,-4.0363 -3.0324,-7.7711 0.1033,-2.1506 0.2729,-2.8618 0.9999,-4.1961 1.5066,-2.7652 3.9939,-4.2434 7.1402,-4.2434 l 1.4877,0 -0.149,3.6181 c -0.082,1.99 -0.043,5.2637 0.087,7.275 0.2259,3.5071 0.2088,3.6857 -0.4172,4.3604 -1.5183,1.6363 -4.2903,2.0701 -6.1157,0.9571 z m 23.913,-7.8106 0,-12.9 -3,0 -3,0 0,12.7 c 0,6.985 0.09,12.79 0.2,12.9 0.11,0.11 1.46,0.2 3,0.2 l 2.8,0 0,-12.9 z m 11.7,2.5821 c 0,-11.7298 -0.2957,-10.5999 2.8463,-10.8771 1.0456,-0.092 2.6472,0.018 3.8107,0.2631 l 2.0071,0.4224 0.4927,-2.2144 c 0.2709,-1.218 0.4235,-2.3945 0.3391,-2.6146 -0.2499,-0.6512 -4.2094,-1.1638 -7.3959,-0.9574 -1.5675,0.1015 -3.9975,0.4909 -5.4,0.8653 l -2.55,0.6806 -0.078,12.375 -0.078,12.375 3.0033,0 3.0033,0 0,-10.3179 z m -12.5694,-20.068 c 3.4692,-2.3346 0.8394,-7.8408 -3.1205,-6.5339 -1.4385,0.4748 -2.3302,1.5438 -2.5299,3.0331 -0.4285,3.1946 2.9734,5.3023 5.6504,3.5008 z m 33.8693,33.6859 0,-3 2.1,0 2.1,0 0,3 0,3 -2.1,0 -2.1,0 0,-3 z m 9.5,2.8 c -0.11,-0.11 -0.2,-1.5856 -0.2,-3.2791 l 0,-3.079 2.223,-1.0693 c 3.9514,-1.9005 5.6442,-4.6287 5.6268,-9.0685 -0.01,-1.8097 -0.1634,-2.5802 -0.7781,-3.8367 -0.9025,-1.8445 -1.3261,-2.2667 -3.4263,-3.4153 l -1.5679,-0.8574 1.1946,-0.7906 c 2.5173,-1.6659 3.6105,-5.258 2.625,-8.6256 -0.6255,-2.1376 -1.8401,-3.5513 -4.0746,-4.7423 l -1.8225,-0.9713 0,-3.8824 0,-3.8824 32.7096,0 c 36.015,0 34.1922,-0.096 35.3827,1.8569 0.5918,0.9709 0.6053,1.4593 0.6065,21.9329 0,23.3597 0.1066,22.1848 -2.0932,23.3071 -1.1622,0.593 -1.721,0.603 -33.6937,0.603 -17.8815,0 -32.6019,-0.09 -32.7119,-0.2 z m 38.412,-6.2445 c 0.8592,-0.2591 1.6476,-0.6092 1.7519,-0.7781 0.105,-0.1688 -0.032,-1.3042 -0.3033,-2.5231 l -0.4932,-2.2162 -1.2587,0.4462 c -1.7559,0.6224 -5.0993,0.6219 -6.05,-9e-4 -1.6337,-1.0705 -1.7893,-1.8513 -1.7994,-9.0333 l -0.01,-6.6 4.575,-0.083 4.575,-0.083 0,-2.3844 0,-2.3844 -4.575,-0.083 -4.575,-0.083 -0.084,-3.8566 -0.084,-3.8567 -0.9658,0.1705 c -0.5312,0.094 -1.877,0.3244 -2.9907,0.5124 l -2.025,0.342 0.01,11.4442 c 0.01,6.2943 0.1385,12.4567 0.2965,13.6942 0.7296,5.7128 3.9815,8.2892 10.0442,7.9577 1.32,-0.072 3.1029,-0.3432 3.9621,-0.6022 z m -20.012,-12.7555 0,-12.9 -3,0 -3,0 0,12.9 0,12.9 3,0 3,0 0,-12.9 z m 43.4999,10.35 0,-2.55 -6.6145,0 -6.6143,0 0.9692,-1.425 c 1.7941,-2.6381 7.1041,-9.5026 9.5415,-12.3348 l 2.4181,-2.8098 0,-2.0652 0,-2.0652 -9.75,0 -9.75,0 0,2.4 0,2.4 5.85,0 c 3.2175,0 5.85,0.068 5.85,0.1505 0,0.083 -1.1273,1.534 -2.5053,3.225 -2.5658,3.149 -7.1097,9.3753 -8.8308,12.1008 -0.836,1.3237 -0.9639,1.7915 -0.9639,3.525 l 0,1.9987 10.2,0 10.2,0 0,-2.55 z m -44.8602,-27.5763 c 1.9806,-0.8276 2.6322,-3.8291 1.2005,-5.5306 -1.1424,-1.3576 -2.5685,-1.7283 -4.2212,-1.0972 -1.5151,0.5786 -2.219,1.6268 -2.219,3.3041 0,2.8646 2.5171,4.4612 5.2397,3.3237 z m -27.9647,25.1296 -0.975,-0.1414 0,-5.1073 0,-5.1073 4.725,0.1013 c 5.3651,0.1152 6.562,0.4749 7.8223,2.3513 0.6014,0.8954 0.6878,1.3335 0.5866,2.9748 -0.1123,1.8226 -0.1852,1.9838 -1.3741,3.0388 -0.7457,0.6617 -1.822,1.2568 -2.6507,1.4654 -1.5285,0.3849 -6.5857,0.6487 -8.1341,0.4243 z m -0.975,-19.9033 0,-4.5588 3.975,0.1123 c 5.8955,0.1667 7.725,1.2198 7.725,4.4465 0,3.2266 -1.8295,4.2797 -7.725,4.4464 l -3.975,0.1124 0,-4.5589 z m 2.6,-9.8 c -0.11,-0.11 -0.2,-1.6624 -0.2,-3.4499 l 0,-3.25 2.1,0 2.1,0 0,3.45 0,3.4499 -1.9,0 c -1.045,0 -1.99,-0.09 -2.1,-0.2 z m -10.8931,-13.7515 -1.7129,-1.532 0.878,-0.619 c 7.2396,-5.104 18.9579,-5.2156 26.8153,-0.2555 l 1.3221,0.8347 -1.7551,1.5572 -1.7551,1.5573 -1.9287,-0.9704 c -2.8493,-1.4336 -5.6986,-2.066 -9.2205,-2.0467 -3.4785,0.019 -6.0017,0.5904 -8.915,2.0186 l -2.0151,0.9879 -1.713,-1.5321 z m 6.8007,-1.3943 c 1.894,-0.5947 2.8485,-0.7009 6.1424,-0.6831 3.4367,0.019 4.1851,0.1188 6.3,0.8442 1.32,0.4528 2.8523,1.088 3.4051,1.4116 l 1.0051,0.5884 1.1426,-0.9826 c 0.6285,-0.5404 1.113,-1.1176 1.0767,-1.2826 -0.1158,-0.5266 -4.4451,-2.5144 -6.9295,-3.1815 -3.3651,-0.9038 -8.9279,-0.9059 -12.2799,-0.01 -2.6256,0.7058 -6.2702,2.2839 -6.8286,2.9568 -0.2915,0.3512 -0.1383,0.6161 0.8233,1.4234 l 1.1816,0.992 1.3594,-0.6889 c 0.7476,-0.3789 2.3685,-1.0057 3.6018,-1.393 z m -13.1478,-4.3362 c -1.8615,-1.6284 -1.8686,-1.6088 1.3135,-3.5922 11.0762,-6.9034 25.1411,-6.7643 36.0659,0.3568 l 2.5902,1.6884 -1.6397,1.455 c -0.9018,0.8002 -1.7386,1.4593 -1.8594,1.4645 -0.1208,0.01 -1.0983,-0.5281 -2.172,-1.1854 -2.3731,-1.4524 -4.7533,-2.4742 -7.8636,-3.3755 -3.1918,-0.925 -11.0894,-0.985 -14.3447,-0.109 -2.8082,0.7557 -6.2145,2.2158 -8.3308,3.5711 -0.9519,0.6096 -1.8317,1.1084 -1.9551,1.1084 -0.1233,0 -0.9353,-0.622 -1.8043,-1.3821 z m 8.0824,-2.6593 c 3.6598,-1.4821 6.6695,-2.035 11.0578,-2.0313 5.6254,0.01 10.5994,1.3395 15.1225,4.0581 l 2.1866,1.3143 1.1437,-1.0481 1.1436,-1.048 -0.7088,-0.574 c -2.2445,-1.8175 -6.8339,-3.9401 -11.0316,-5.1023 -1.942,-0.5377 -3.1582,-0.6413 -7.706,-0.6567 -4.6156,-0.015 -5.7755,0.077 -7.9851,0.6405 -3.3097,0.8434 -7.3725,2.5968 -9.9629,4.3 l -2.0347,1.3377 1.2688,1.0819 1.2687,1.0819 1.8648,-1.1692 c 1.0256,-0.6431 2.9933,-1.6262 4.3726,-2.1848 z m -13.8421,-2.5383 c -1.9231,-1.7168 -2.1255,-1.3296 2.2183,-4.2439 11.8081,-7.9222 27.1994,-9.0557 40.0559,-2.9499 3.1506,1.4963 7.5372,4.226 8.4992,5.289 0.5014,0.5541 0.4587,0.6286 -1.1641,2.0296 -1.1449,0.9884 -1.8,1.3664 -2.0446,1.1796 -12.961,-9.8915 -30.3176,-10.4283 -43.4584,-1.3442 -1.2088,0.8357 -2.2561,1.518 -2.3271,1.5162 -0.071,0 -0.8717,-0.6662 -1.7792,-1.4764 z m 3.9606,-0.7347 c 8.8044,-6.1247 20.1077,-7.9896 30.9147,-5.1003 3.2159,0.8598 7.8793,3.0193 10.8393,5.0195 1.1356,0.7673 2.1417,1.3952 2.2357,1.3952 0.2466,0 2.1496,-1.8789 2.1496,-2.1224 0,-0.3549 -4.8479,-3.4616 -7.35,-4.7102 -3.066,-1.5299 -7.0299,-2.8447 -10.65,-3.5327 -3.7213,-0.7072 -10.5121,-0.7301 -14.2675,-0.048 -5.6145,1.0196 -11.5576,3.4944 -16.1505,6.7254 l -2.368,1.6658 1.168,0.9998 c 0.6424,0.5499 1.2628,1.0049 1.3787,1.0111 0.1158,0.01 1.0608,-0.5802 2.1,-1.3031 z"
       id="path10340"
       inkscape:connector-curvature="0"
       inkscape:export-xdpi="84.150002"
       inkscape:export-ydpi="84.150002" />
  </g>
</svg>
