<?xml version="1.0" encoding="UTF-8" standalone="no"?>
<!-- Created with Inkscape (http://www.inkscape.org/) -->

<svg
   xmlns:dc="http://purl.org/dc/elements/1.1/"
   xmlns:cc="http://creativecommons.org/ns#"
   xmlns:rdf="http://www.w3.org/1999/02/22-rdf-syntax-ns#"
   xmlns:svg="http://www.w3.org/2000/svg"
   xmlns="http://www.w3.org/2000/svg"
   xmlns:sodipodi="http://sodipodi.sourceforge.net/DTD/sodipodi-0.dtd"
   xmlns:inkscape="http://www.inkscape.org/namespaces/inkscape"
   width="42.333332mm"
   height="36.46397mm"
   viewBox="0 0 150 129.20303"
   id="svg8162"
   version="1.1"
   inkscape:version="0.91 r13725"
   sodipodi:docname="chipchap.svg"
   inkscape:export-filename="/media/data/ari/trabajo/libbitcoin/libbitcoin/img/bg-btc-satoshi.png"
   inkscape:export-xdpi="84"
   inkscape:export-ydpi="84">
  <defs
     id="defs8164">
    <clipPath
       clipPathUnits="userSpaceOnUse"
       id="clipPath5836">
      <rect
         inkscape:export-ydpi="84.150002"
         inkscape:export-xdpi="84.150002"
         y="-1821.4224"
         x="1501.5691"
         height="383.14114"
         width="1352"
         id="rect5838"
         style="fill:#855f04;fill-opacity:1;stroke:none;stroke-width:0.5;stroke-miterlimit:4;stroke-dasharray:none" />
    </clipPath>
    <clipPath
       clipPathUnits="userSpaceOnUse"
       id="clipPath10288">
      <rect
         style="fill:#4d4d4d;fill-opacity:1;stroke:none;stroke-width:0.5;stroke-miterlimit:4;stroke-dasharray:none"
         id="rect10290"
         width="1352"
         height="505.16321"
         x="2284"
         y="239.03357" />
    </clipPath>
  </defs>
  <sodipodi:namedview
     id="base"
     pagecolor="#ffffff"
     bordercolor="#666666"
     borderopacity="1.0"
     inkscape:pageopacity="0.0"
     inkscape:pageshadow="2"
     inkscape:zoom="0.49497475"
     inkscape:cx="-1.4985198"
     inkscape:cy="116.73837"
     inkscape:document-units="px"
     inkscape:current-layer="layer1"
     showgrid="false"
     fit-margin-top="0"
     fit-margin-left="0"
     fit-margin-right="0"
     fit-margin-bottom="0"
     inkscape:window-width="1920"
     inkscape:window-height="1016"
     inkscape:window-x="0"
     inkscape:window-y="27"
     inkscape:window-maximized="1" />
  <metadata
     id="metadata8167">
    <rdf:RDF>
      <cc:Work
         rdf:about="">
        <dc:format>image/svg+xml</dc:format>
        <dc:type
           rdf:resource="http://purl.org/dc/dcmitype/StillImage" />
        <dc:title></dc:title>
      </cc:Work>
    </rdf:RDF>
  </metadata>
  <g
     inkscape:label="Capa 1"
     inkscape:groupmode="layer"
     id="layer1"
     transform="translate(4485.618,2865.8051)">
    <g
       id="g9900"
       transform="matrix(0.44881079,0,0,0.44881081,-4923.3839,-2941.0025)"
       style="fill:#f2f2f2;fill-opacity:1"
       inkscape:export-xdpi="84.150002"
       inkscape:export-ydpi="84.150002">
      <g
         id="g9902"
         style="fill:#f2f2f2;fill-opacity:1">
        <path
           style="fill:#f2f2f2;fill-opacity:1"
           inkscape:connector-curvature="0"
           d="m 1143.941,167.548 c 21.516,0 41.748,10.489 54.123,28.045 10.168,14.412 14.106,31.958 11.092,49.387 -2.754,15.924 -11.01,29.989 -23.423,40.057 l -1.679,-15.883 -0.186,-1.785 -1.623,-0.757 -14.502,-6.772 c 5.814,-5.261 9.682,-12.27 11.034,-20.122 1.607,-9.284 -0.497,-18.644 -5.931,-26.343 -6.609,-9.375 -17.4,-14.96 -28.873,-14.96 -4.92,0 -9.84,1.052 -14.508,3.131 l -16.282,-7.888 -1.845,-17.48 c 9.925,-5.644 21.162,-8.63 32.603,-8.63 m -41.671,14.832 1.682,15.885 0.186,1.786 1.621,0.754 14.506,6.782 c -5.816,5.266 -9.686,12.26 -11.041,20.11 -1.604,9.3 0.508,18.658 5.938,26.359 6.605,9.363 17.395,14.958 28.871,14.958 4.926,0 9.859,-1.065 14.506,-3.143 l 16.279,7.896 1.845,17.47 c -9.926,5.661 -21.161,8.631 -32.598,8.631 -21.514,0 -41.745,-10.475 -54.124,-28.032 -10.166,-14.422 -14.104,-31.956 -11.089,-49.389 2.753,-15.935 11.005,-30.001 23.418,-40.067"
           id="path9904" />
      </g>
      <g
         id="g9906"
         style="fill:#f2f2f2;fill-opacity:1">
        <path
           style="fill:#f2f2f2;fill-opacity:1"
           inkscape:connector-curvature="0"
           d="m 1001.604,394.862 c -0.475,0.79 -3.378,0.071 -4.183,0.09 -1.85,0.046 -3.774,0.464 -5.299,1.571 -2.762,2.008 -4.135,6.122 -4.58,9.281 -0.894,6.336 0.995,16.718 9.674,15.77 1.646,-0.181 3.265,-0.731 4.723,-1.503 1.519,-0.803 2.744,-2.112 4.285,-2.838 1.297,-0.611 1.953,0.209 1.736,1.485 -0.262,1.545 -1.273,2.95 -2.215,4.155 -4.764,6.099 -12.779,8.881 -19.99,5.371 -4.884,-2.379 -8.004,-7.503 -9.436,-12.581 -1.619,-5.748 -1.156,-11.803 1.673,-17.096 2.394,-4.478 6.913,-9.003 12.187,-9.588 2.496,-0.275 5.168,0.132 7.436,1.211 1.192,0.568 4.983,2.877 3.989,4.672 -0.182,0.303 0.304,-0.549 0,0 z"
           id="path9908" />
        <path
           style="fill:#f2f2f2;fill-opacity:1"
           inkscape:connector-curvature="0"
           d="m 1008.816,419.149 c -0.225,-7.382 -0.286,-14.769 -0.211,-22.153 0.084,-8.136 0.183,-16.306 0.99,-24.408 0.34,-3.41 0.676,-7.127 1.945,-10.342 0.443,-1.125 1.013,-2.06 2.215,-2.417 1.988,-0.587 3.951,-0.29 5.826,0.525 3.275,1.427 6.074,4.261 7.506,7.534 1.387,3.17 1.389,7.455 0.95,10.835 -0.533,4.104 -2.005,8.082 -3.795,11.791 -1.846,3.824 -4.437,7.333 -5.565,11.47 3.087,-5.559 9.872,-14.147 17.167,-10.318 6.874,3.552 7.148,12.851 7.522,19.571 0.209,3.771 0.33,7.616 1.15,11.317 0.688,3.109 2.861,5.926 5.571,7.598 1.321,0.818 2.837,1.477 4.429,1.37 0.695,-0.046 1.529,0.447 1.529,1.233 0,0.762 -1.064,1.21 -1.645,1.474 -2.994,1.354 -6.652,1.14 -9.723,0.121 -3.221,-1.07 -6.844,-3.104 -8.6,-6.107 -1.906,-3.261 -2.556,-7.35 -3.078,-11.032 -0.404,-2.849 -0.787,-20.294 -7.346,-15.426 -2.793,2.074 -3.729,6.417 -4.382,9.617 -0.787,3.862 -1.229,7.766 -1.511,11.694 -0.201,2.784 -0.049,6.881 -3.978,6.634 -1.581,-0.101 -3.183,-0.787 -4.505,-1.633 -1.613,-1.029 -2.029,-3.037 -2.305,-4.807 -0.208,-1.365 -0.218,-2.764 -0.156,-4.141 -0.06,-2.009 -0.06,1.34 0,0 z m 11.141,-32.598 c 1.166,-4.315 2.43,-8.913 2.282,-13.421 -0.14,-2.071 -0.392,-4.283 -1.253,-6.196 -0.254,-0.563 -0.834,-1.702 -1.633,-1.401 -0.725,0.272 -1.045,1.248 -1.246,1.913 -1.258,4.159 -1.111,8.884 -1.109,13.182 0,4.655 0.258,9.311 0.492,13.959 0.887,-2.657 1.735,-5.33 2.467,-8.036 0.607,-2.249 -0.609,2.253 0,0 z"
           id="path9910" />
        <path
           style="fill:#f2f2f2;fill-opacity:1"
           inkscape:connector-curvature="0"
           d="m 1048.171,405.361 c 0.452,-3.618 1.223,-7.455 3.176,-10.596 0.854,-1.373 1.87,-2.093 3.37,-2.632 1.595,-0.573 3.721,-1.314 5.361,-0.486 1.282,0.649 1.517,1.947 1.343,3.25 -0.231,1.719 -1.055,3.306 -1.347,5.103 -0.631,3.888 -0.85,8.406 -0.49,12.326 0.271,2.945 0.709,7.88 3.511,9.646 3.384,2.134 7.526,-1.055 9.456,-3.735 0.473,-0.744 2.17,-2.884 3.271,-2.206 1.068,0.657 -0.096,3.126 -0.414,3.881 -1.412,3.332 -3.77,6.286 -6.925,8.116 -5.503,3.189 -14.056,2.439 -17.64,-3.33 -1.675,-2.695 -2.219,-6.028 -2.496,-9.139 -0.302,-3.386 -0.286,-6.802 -0.176,-10.198 0.183,-1.46 -0.123,3.776 0,0 z m 4.108,-32.598 c 2.814,-5.629 14.684,-1.456 10.832,4.51 -1.666,2.581 -4.6,3.062 -7.453,2.796 -3.24,-0.266 -4.898,-4.702 -3.379,-7.306 0.669,-1.337 -0.425,0.732 0,0 z"
           id="path9912" />
        <path
           style="fill:#f2f2f2;fill-opacity:1"
           inkscape:connector-curvature="0"
           d="m 1073.736,387.007 c 2.354,-2.611 6.624,1.763 7.729,3.814 0.803,1.49 0.88,3.437 1.041,5.088 0.039,0.396 0.318,4.331 1,3.518 1.925,-2.9 3.936,-5.554 7.008,-7.324 3.231,-1.865 6.905,-1.995 10.402,-0.744 7.482,2.675 9.549,11.294 7.348,18.303 -2.367,7.541 -9.845,10.43 -17.044,11.385 -1.073,0.143 -2.296,0.332 -3.362,0.036 -1.643,-0.456 -1.019,-2.288 -0.01,-3.093 2.68,-2.132 6.388,-2.53 8.945,-4.904 2.647,-2.461 4.311,-6.461 3.023,-10.022 -1.18,-3.261 -5.232,-5.615 -8.506,-4.002 -6.164,3.042 -6.937,11.654 -7.42,17.607 -0.66,8.099 -0.496,16.251 -0.423,24.371 0.032,3.503 0.179,7.047 -0.052,10.545 -0.075,1.141 -0.205,2.596 -1.23,3.312 -1.568,1.093 -3.852,0.288 -5.328,-0.561 -0.959,-0.552 -2.74,-1.539 -3.118,-2.661 -0.462,-1.372 -0.47,-2.951 -0.579,-4.382 -0.278,-3.625 -0.402,-7.264 -0.5,-10.898 -0.225,-8.333 -0.254,-16.673 -0.16,-25.008 0.082,-7.442 0.07,-14.983 0.848,-22.392 0.058,-0.553 0.031,-1.511 0.386,-1.988 0.548,-0.607 -0.183,0.245 0,0 z"
           id="path9914" />
        <path
           style="fill:#f2f2f2;fill-opacity:1"
           inkscape:connector-curvature="0"
           d="m 1139.803,405.685 c 1.52,0.382 3,0.903 4.457,1.473 1.256,0.492 2.8,0.925 3.633,2.057 0.812,1.107 0.676,2.655 -0.262,3.642 -1.007,1.055 -2.545,0.913 -3.885,1.035 -2.906,0.265 -5.812,0.548 -8.717,0.85 -2.914,0.303 -6.023,0.993 -8.943,0.52 -1.297,-0.21 -2.543,-0.726 -3.76,-1.199 -1.257,-0.488 -2.562,-0.949 -3.045,-2.345 -0.445,-1.275 -0.152,-2.713 0.68,-3.768 0.596,-0.754 1.479,-0.978 2.376,-1.169 2.958,-0.634 6.019,-0.865 9.032,-1.06 2.717,-0.174 5.736,-0.574 8.434,-0.036 1.093,0.274 -0.822,-0.164 0,0 z"
           id="path9916" />
        <path
           style="fill:#f2f2f2;fill-opacity:1"
           inkscape:connector-curvature="0"
           d="m 1180.932,394.862 c -0.475,0.79 -3.379,0.071 -4.184,0.09 -1.848,0.046 -3.775,0.462 -5.299,1.571 -2.762,2.009 -3.57,6.214 -4.016,9.375 -0.895,6.333 0.43,16.624 9.11,15.676 1.646,-0.181 3.264,-0.731 4.721,-1.503 1.519,-0.803 2.747,-2.112 4.285,-2.838 1.3,-0.611 1.954,0.209 1.737,1.485 -0.262,1.545 -1.273,2.95 -2.213,4.155 -4.765,6.099 -12.782,8.881 -19.992,5.371 -4.884,-2.378 -8.005,-7.503 -9.437,-12.581 -1.618,-5.746 -1.154,-11.803 1.674,-17.096 2.392,-4.478 6.914,-9.003 12.186,-9.588 2.497,-0.275 5.169,0.131 7.437,1.211 1.193,0.568 4.984,2.878 3.991,4.672 -0.184,0.303 0.302,-0.549 0,0 z"
           id="path9918" />
        <path
           style="fill:#f2f2f2;fill-opacity:1"
           inkscape:connector-curvature="0"
           d="m 1188.144,419.149 c -0.224,-7.382 -0.288,-14.769 -0.212,-22.153 0.084,-8.136 0.184,-16.305 0.992,-24.408 0.338,-3.41 0.674,-7.127 1.943,-10.342 0.443,-1.125 1.014,-2.06 2.214,-2.417 1.989,-0.587 3.954,-0.29 5.829,0.525 3.273,1.428 6.07,4.261 7.503,7.534 1.388,3.169 1.388,7.455 0.95,10.835 -0.533,4.104 -2.005,8.082 -3.793,11.791 -1.846,3.824 -4.436,7.333 -5.564,11.47 3.085,-5.559 9.872,-14.147 17.166,-10.318 6.871,3.552 7.148,12.851 7.521,19.571 0.208,3.771 0.33,7.618 1.15,11.317 0.688,3.109 2.861,5.926 5.572,7.598 1.32,0.818 2.836,1.477 4.428,1.37 0.695,-0.046 1.529,0.447 1.529,1.233 0,0.762 -1.065,1.21 -1.645,1.474 -2.996,1.354 -6.651,1.14 -9.724,0.121 -3.22,-1.07 -6.843,-3.104 -8.599,-6.107 -1.906,-3.261 -2.555,-7.35 -3.078,-11.032 -0.404,-2.852 -0.784,-20.292 -7.348,-15.426 -2.791,2.072 -3.729,6.42 -4.379,9.617 -0.787,3.862 -1.229,7.766 -1.511,11.694 -0.201,2.784 -0.051,6.881 -3.979,6.634 -1.582,-0.101 -3.182,-0.787 -4.504,-1.633 -1.613,-1.029 -2.028,-3.037 -2.303,-4.807 -0.212,-1.365 -0.222,-2.764 -0.158,-4.141 -0.062,-2.009 -0.062,1.34 0,0 z m 11.137,-32.598 c 1.168,-4.315 2.432,-8.913 2.283,-13.421 -0.137,-2.071 -0.39,-4.284 -1.254,-6.196 -0.252,-0.563 -0.832,-1.702 -1.63,-1.401 -0.726,0.272 -1.047,1.248 -1.249,1.913 -1.256,4.161 -1.109,8.884 -1.107,13.182 0,4.655 0.258,9.311 0.494,13.959 0.885,-2.657 1.733,-5.33 2.463,-8.036 0.61,-2.249 -0.607,2.253 0,0 z"
           id="path9920" />
        <path
           style="fill:#f2f2f2;fill-opacity:1"
           inkscape:connector-curvature="0"
           d="m 1254.159,390.661 c -0.359,1.56 -2.013,2.268 -3.292,2.952 -1.745,0.931 -3.605,1.729 -5.232,2.864 -2.928,2.039 -4.268,5.629 -4.899,9.006 -0.683,3.637 -0.931,7.542 -0.069,11.173 0.258,1.088 0.652,2.948 1.846,3.419 1.424,0.563 3.182,-0.983 4.102,-1.854 1.293,-1.226 2.389,-2.652 3.297,-4.186 0.832,-1.412 1.875,-3.235 1.875,-4.927 0,-1.771 -0.18,-3.535 -0.105,-5.307 0.059,-1.42 0.025,-4.084 1.271,-5.08 0.5,-0.4 1.259,-0.344 1.857,-0.456 0.899,-0.171 1.773,-0.471 2.695,-0.502 1.682,-0.057 2.973,0.721 3.557,2.333 0.481,1.333 0.471,2.847 0.423,4.242 -0.065,1.993 -0.112,3.987 -0.028,5.979 0.158,3.662 0.791,11.044 6.207,10.134 2.779,-0.469 4.873,-3.783 6.396,-5.88 0.342,-0.469 1.371,-2.502 2.196,-2.086 0.874,0.373 0.474,2.373 0.359,3.029 -1.017,5.821 -5.722,10.973 -11.243,12.846 -2.773,0.944 -6.048,0.738 -8.381,-1.175 -2.352,-1.922 -3.822,-4.634 -4.747,-7.488 -2.255,5.4 -9.006,9.503 -14.812,7.419 -6.201,-2.227 -8.89,-9.34 -9.068,-15.409 -0.198,-6.848 2.91,-13.654 8.344,-17.816 2.779,-2.127 6.01,-3.541 9.43,-4.244 0.954,-0.196 8.594,-1.28 8.021,1.014 -0.18,0.792 0.122,-0.487 0,0 z"
           id="path9922" />
        <path
           style="fill:#f2f2f2;fill-opacity:1"
           inkscape:connector-curvature="0"
           d="m 1274.248,387.007 c 2.354,-2.611 6.623,1.763 7.729,3.814 0.801,1.49 0.879,3.437 1.04,5.088 0.038,0.396 0.319,4.331 1.001,3.518 1.924,-2.9 3.936,-5.554 7.006,-7.324 3.234,-1.865 6.906,-1.995 10.402,-0.744 7.482,2.675 9.549,11.294 7.35,18.303 -2.369,7.541 -9.846,10.43 -17.045,11.385 -1.074,0.143 -2.297,0.332 -3.361,0.036 -1.643,-0.456 -1.02,-2.288 -0.01,-3.093 2.68,-2.132 6.387,-2.53 8.945,-4.904 2.646,-2.461 4.311,-6.461 3.021,-10.022 -1.18,-3.261 -5.23,-5.615 -8.504,-4.002 -6.166,3.042 -6.938,11.654 -7.422,17.607 -0.66,8.099 -0.494,16.251 -0.42,24.371 0.029,3.503 0.176,7.047 -0.055,10.545 -0.072,1.141 -0.203,2.596 -1.229,3.312 -1.567,1.093 -3.85,0.288 -5.327,-0.561 -0.961,-0.552 -2.742,-1.539 -3.119,-2.661 -0.461,-1.372 -0.469,-2.951 -0.578,-4.382 -0.279,-3.625 -0.402,-7.264 -0.502,-10.898 -0.224,-8.333 -0.252,-16.673 -0.16,-25.008 0.084,-7.442 0.071,-14.983 0.849,-22.392 0.058,-0.553 0.03,-1.511 0.387,-1.988 0.547,-0.607 -0.184,0.245 0,0 z"
           id="path9924" />
      </g>
    </g>
  </g>
</svg>
