<?xml version="1.0" encoding="UTF-8" standalone="no"?>
<!-- Created with Inkscape (http://www.inkscape.org/) -->

<svg
   xmlns:dc="http://purl.org/dc/elements/1.1/"
   xmlns:cc="http://creativecommons.org/ns#"
   xmlns:rdf="http://www.w3.org/1999/02/22-rdf-syntax-ns#"
   xmlns:svg="http://www.w3.org/2000/svg"
   xmlns="http://www.w3.org/2000/svg"
   xmlns:sodipodi="http://sodipodi.sourceforge.net/DTD/sodipodi-0.dtd"
   xmlns:inkscape="http://www.inkscape.org/namespaces/inkscape"
   id="svg2"
   version="1.1"
   inkscape:version="0.91 r13725"
   width="160"
   height="137.55188"
   viewBox="0 0 160 137.55188"
   sodipodi:docname="darkleaks.svg">
  <metadata
     id="metadata8">
    <rdf:RDF>
      <cc:Work
         rdf:about="">
        <dc:format>image/svg+xml</dc:format>
        <dc:type
           rdf:resource="http://purl.org/dc/dcmitype/StillImage" />
        <dc:title></dc:title>
      </cc:Work>
    </rdf:RDF>
  </metadata>
  <defs
     id="defs6" />
  <sodipodi:namedview
     pagecolor="#ffffff"
     bordercolor="#666666"
     borderopacity="1"
     objecttolerance="10"
     gridtolerance="10"
     guidetolerance="10"
     inkscape:pageopacity="0"
     inkscape:pageshadow="2"
     inkscape:window-width="1920"
     inkscape:window-height="1016"
     id="namedview4"
     showgrid="false"
     inkscape:snap-bbox="true"
     inkscape:snap-bbox-midpoints="true"
     inkscape:snap-bbox-edge-midpoints="true"
     inkscape:bbox-nodes="true"
     inkscape:bbox-paths="true"
     inkscape:object-paths="true"
     inkscape:snap-intersection-paths="true"
     inkscape:snap-smooth-nodes="true"
     inkscape:snap-midpoints="true"
     showguides="true"
     inkscape:guide-bbox="true"
     inkscape:zoom="0.61191196"
     inkscape:cx="-380.36583"
     inkscape:cy="120.1506"
     inkscape:window-x="0"
     inkscape:window-y="27"
     inkscape:window-maximized="1"
     inkscape:current-layer="svg2"
     fit-margin-top="0"
     fit-margin-left="0"
     fit-margin-right="0"
     fit-margin-bottom="0">
    <sodipodi:guide
       position="-24.469395,61.861465"
       orientation="0,1"
       id="guide4277" />
    <sodipodi:guide
       position="66.638485,203.69493"
       orientation="0,1"
       id="guide4279" />
    <sodipodi:guide
       position="33.510715,89.084906"
       orientation="0,1"
       id="guide4281" />
    <sodipodi:guide
       position="103.26099,176.37998"
       orientation="0,1"
       id="guide4283" />
  </sodipodi:namedview>
  <g
     id="g4311"
     transform="translate(243.95157,184.63028)">
    <g
       transform="matrix(0.65016079,0,0,0.65016079,-67.247325,-20.091294)"
       id="g4305">
      <path
         style="fill:none;fill-rule:evenodd;stroke:#ffffff;stroke-width:5;stroke-linecap:butt;stroke-linejoin:round;stroke-miterlimit:4;stroke-dasharray:none;stroke-opacity:1"
         d="m -179.79614,-170.68351 0.39404,-52.27499 55.14948,85.2607 -50.5151,-26.28982 z"
         id="path4273"
         inkscape:connector-curvature="0"
         sodipodi:nodetypes="ccccc" />
      <path
         style="fill:none;fill-rule:evenodd;stroke:#ffffff;stroke-width:5;stroke-linecap:butt;stroke-linejoin:round;stroke-miterlimit:4;stroke-dasharray:none;stroke-opacity:1"
         d="m -234.44086,-136.16331 54.90647,27.28102 0,-114.17655 -53.95161,-27.21452 z"
         id="path4269"
         inkscape:connector-curvature="0"
         sodipodi:nodetypes="ccccc" />
      <path
         sodipodi:nodetypes="ccccc"
         inkscape:connector-curvature="0"
         id="path4271"
         d="m -117.94356,-136.17543 54.906467,27.14151 0,-114.38083 -55.085347,77.42028 z"
         style="fill:none;fill-rule:evenodd;stroke:#ffffff;stroke-width:5;stroke-linecap:butt;stroke-linejoin:round;stroke-miterlimit:4;stroke-dasharray:none;stroke-opacity:1" />
      <path
         style="fill:none;fill-rule:evenodd;stroke:#ffffff;stroke-width:5;stroke-linecap:butt;stroke-linejoin:round;stroke-miterlimit:4;stroke-dasharray:none;stroke-opacity:1"
         d="m -124.27275,-137.68237 61.235657,-85.71133 -57.293717,-27.18067 -37.768,61.19074 z"
         id="path4275"
         inkscape:connector-curvature="0"
         sodipodi:nodetypes="ccccc" />
    </g>
    <g
       transform="matrix(0.84897751,0,0,0.84897751,103.47056,-85.338216)"
       style="font-style:normal;font-weight:normal;font-size:40px;line-height:100%;font-family:sans-serif;letter-spacing:0px;word-spacing:0px;fill:#ffffff;fill-opacity:1;stroke:none;stroke-width:1px;stroke-linecap:butt;stroke-linejoin:miter;stroke-opacity:1"
       id="flowRoot4297">
      <path
         d="m -401.50411,16.665453 -7.72008,0 0,27.720294 8.32009,0 c 7.08007,0 13.80014,-2.84003 13.80014,-14.000149 0,-11.440121 -7.00007,-13.720145 -14.40015,-13.720145 z m 0.92001,4.760051 c 3.84004,0 6.68007,1.520016 6.68007,8.960094 0,7.360078 -2.64003,9.240098 -6.60007,9.240098 l -2.16002,0 0,-18.200192 2.08002,0 z"
         style="font-style:normal;font-variant:normal;font-weight:bold;font-stretch:normal;font-size:40.00042343px;line-height:100%;font-family:'Fira Sans';-inkscape-font-specification:'Fira Sans, Bold';text-align:start;writing-mode:lr-tb;text-anchor:start;fill:#ffffff"
         id="path4361" />
      <path
         d="m -366.83874,38.225681 0,-8.240087 c 0,-4.920052 -2.64003,-7.520079 -8.8001,-7.520079 -2.40002,0 -5.32005,0.560005 -8.00008,1.560016 l 1.44001,4.160044 c 2.12003,-0.720008 4.20005,-1.120012 5.56006,-1.120012 2.60003,0 3.60004,0.760008 3.60004,3.280035 l 0,0.92001 -2.16002,0 c -6.44007,0 -9.96011,2.520026 -9.96011,7.160075 0,3.880042 2.68003,6.640071 6.92008,6.640071 2.52002,0 4.88005,-0.840009 6.40006,-3.160034 1.00001,2.080022 2.64003,2.84003 5.12006,3.040033 l 1.32001,-4.120044 c -1.00001,-0.360004 -1.44001,-0.96001 -1.44001,-2.600028 z m -9.5601,2.320025 c -1.56002,0 -2.48003,-1.000011 -2.48003,-2.680028 0,-2.120023 1.40001,-3.120033 4.28004,-3.120033 l 1.56002,0 0,3.80004 c -0.76001,1.240013 -1.92002,2.000021 -3.36003,2.000021 z"
         style="font-style:normal;font-variant:normal;font-weight:bold;font-stretch:normal;font-size:40.00042343px;line-height:100%;font-family:'Fira Sans';-inkscape-font-specification:'Fira Sans, Bold';text-align:start;writing-mode:lr-tb;text-anchor:start;fill:#ffffff"
         id="path4363" />
      <path
         d="m -350.24544,22.545515 c -2.44003,0 -4.52005,1.760019 -5.48006,4.68005 l -0.52001,-4.080043 -5.52005,0 0,21.240225 6.32006,0 0,-10.600113 c 0.68001,-3.200033 1.80002,-5.120054 4.40005,-5.120054 0.72001,0 1.24001,0.120001 1.92002,0.280003 l 1.00001,-6.120065 c -0.68001,-0.200002 -1.32001,-0.280003 -2.12002,-0.280003 z"
         style="font-style:normal;font-variant:normal;font-weight:bold;font-stretch:normal;font-size:40.00042343px;line-height:100%;font-family:'Fira Sans';-inkscape-font-specification:'Fira Sans, Bold';text-align:start;writing-mode:lr-tb;text-anchor:start;fill:#ffffff"
         id="path4365" />
      <path
         d="m -339.4297,14.025425 -6.32007,0.680007 0,29.680315 6.32007,0 0,-30.360322 z m 13.12013,9.120097 -6.44006,0 -6.48007,9.640102 6.32006,11.600123 7.12008,0 -6.96007,-11.920127 6.44006,-9.320098 z"
         style="font-style:normal;font-variant:normal;font-weight:bold;font-stretch:normal;font-size:40.00042343px;line-height:100%;font-family:'Fira Sans';-inkscape-font-specification:'Fira Sans, Bold';text-align:start;writing-mode:lr-tb;text-anchor:start;fill:#ffffff"
         id="path4367" />
      <path
         d="m -316.96009,16.665453 -6.56007,0 0,27.720294 16.68018,0 0.68001,-5.200055 -10.80012,0 0,-22.520239 z"
         style="font-style:normal;font-variant:normal;font-weight:bold;font-stretch:normal;font-size:40.00042343px;line-height:100%;font-family:'Fira Sans';-inkscape-font-specification:'Fira Sans, Bold';text-align:start;writing-mode:lr-tb;text-anchor:start;fill:#ffffff"
         id="path4369" />
      <path
         d="m -284.57287,33.34563 c 0,-6.880073 -3.72004,-10.880115 -9.8001,-10.880115 -6.44007,0 -9.92011,5.040053 -9.92011,11.40012 0,6.640071 3.60004,11.200119 10.68012,11.200119 3.44003,0 6.16006,-1.280014 8.28008,-2.960032 l -2.60002,-3.520037 c -1.84002,1.280014 -3.36004,1.88002 -5.08006,1.88002 -2.60002,0 -4.40004,-1.040011 -4.80005,-4.840051 l 13.12014,0 c 0.08,-0.640007 0.12,-1.600017 0.12,-2.280024 z m -6.20006,-1.520016 -7.08008,0 c 0.32001,-3.840041 1.52002,-5.160055 3.64004,-5.160055 2.52003,0 3.40004,2.000021 3.44004,4.880052 l 0,0.280003 z"
         style="font-style:normal;font-variant:normal;font-weight:bold;font-stretch:normal;font-size:40.00042343px;line-height:100%;font-family:'Fira Sans';-inkscape-font-specification:'Fira Sans, Bold';text-align:start;writing-mode:lr-tb;text-anchor:start;fill:#ffffff"
         id="path4371" />
      <path
         d="m -264.02516,38.225681 0,-8.240087 c 0,-4.920052 -2.64002,-7.520079 -8.80009,-7.520079 -2.40002,0 -5.32006,0.560005 -8.00008,1.560016 l 1.44001,4.160044 c 2.12002,-0.720008 4.20005,-1.120012 5.56006,-1.120012 2.60003,0 3.60004,0.760008 3.60004,3.280035 l 0,0.92001 -2.16002,0 c -6.44007,0 -9.96011,2.520026 -9.96011,7.160075 0,3.880042 2.68003,6.640071 6.92007,6.640071 2.52003,0 4.88006,-0.840009 6.40007,-3.160034 1.00001,2.080022 2.64003,2.84003 5.12006,3.040033 l 1.32001,-4.120044 c -1.00001,-0.360004 -1.44002,-0.96001 -1.44002,-2.600028 z m -9.5601,2.320025 c -1.56001,0 -2.48002,-1.000011 -2.48002,-2.680028 0,-2.120023 1.40001,-3.120033 4.28004,-3.120033 l 1.56002,0 0,3.80004 c -0.76001,1.240013 -1.92002,2.000021 -3.36004,2.000021 z"
         style="font-style:normal;font-variant:normal;font-weight:bold;font-stretch:normal;font-size:40.00042343px;line-height:100%;font-family:'Fira Sans';-inkscape-font-specification:'Fira Sans, Bold';text-align:start;writing-mode:lr-tb;text-anchor:start;fill:#ffffff"
         id="path4373" />
      <path
         d="m -252.63191,14.025425 -6.32007,0.680007 0,29.680315 6.32007,0 0,-30.360322 z m 13.12014,9.120097 -6.44007,0 -6.48007,9.640102 6.32007,11.600123 7.12007,0 -6.96007,-11.920127 6.44007,-9.320098 z"
         style="font-style:normal;font-variant:normal;font-weight:bold;font-stretch:normal;font-size:40.00042343px;line-height:100%;font-family:'Fira Sans';-inkscape-font-specification:'Fira Sans, Bold';text-align:start;writing-mode:lr-tb;text-anchor:start;fill:#ffffff"
         id="path4375" />
      <path
         d="m -229.36228,22.465515 c -5.36006,0 -8.68009,2.84003 -8.68009,6.480068 0,3.280035 2.08002,5.440058 6.28006,6.64007 3.84004,1.080012 4.48005,1.520017 4.48005,2.960032 0,1.280013 -1.16001,2.000021 -3.08003,2.000021 -2.08002,0 -4.04005,-0.840009 -5.64006,-2.080022 l -3.08004,3.440036 c 2.08003,1.88002 5.20006,3.160034 8.8801,3.160034 5.28005,0 9.4401,-2.600028 9.4401,-7.000074 0,-3.800041 -2.36003,-5.560059 -6.56007,-6.760072 -3.80004,-1.120012 -4.36005,-1.600017 -4.36005,-2.720029 0,-0.96001 0.84001,-1.600017 2.56003,-1.600017 1.84002,0 3.60004,0.600007 5.24006,1.640018 l 2.32002,-3.560038 c -1.96002,-1.600017 -4.72005,-2.600027 -7.80008,-2.600027 z"
         style="font-style:normal;font-variant:normal;font-weight:bold;font-stretch:normal;font-size:40.00042343px;line-height:100%;font-family:'Fira Sans';-inkscape-font-specification:'Fira Sans, Bold';text-align:start;writing-mode:lr-tb;text-anchor:start;fill:#ffffff"
         id="path4377" />
    </g>
  </g>
</svg>
