<?xml version="1.0" encoding="UTF-8" standalone="no"?>
<!-- Created with Inkscape (http://www.inkscape.org/) -->

<svg
   xmlns:dc="http://purl.org/dc/elements/1.1/"
   xmlns:cc="http://creativecommons.org/ns#"
   xmlns:rdf="http://www.w3.org/1999/02/22-rdf-syntax-ns#"
   xmlns:svg="http://www.w3.org/2000/svg"
   xmlns="http://www.w3.org/2000/svg"
   xmlns:sodipodi="http://sodipodi.sourceforge.net/DTD/sodipodi-0.dtd"
   xmlns:inkscape="http://www.inkscape.org/namespaces/inkscape"
   width="75.212219mm"
   height="15.319276mm"
   viewBox="0 0 266.5 54.280893"
   id="svg8162"
   version="1.1"
   inkscape:version="0.91 r13725"
   sodipodi:docname="darkwallet.svg"
   inkscape:export-filename="/media/data/ari/trabajo/libbitcoin/libbitcoin/img/bg-btc-satoshi.png"
   inkscape:export-xdpi="84"
   inkscape:export-ydpi="84">
  <defs
     id="defs8164">
    <clipPath
       clipPathUnits="userSpaceOnUse"
       id="clipPath5836">
      <rect
         inkscape:export-ydpi="84.150002"
         inkscape:export-xdpi="84.150002"
         y="-1821.4224"
         x="1501.5691"
         height="383.14114"
         width="1352"
         id="rect5838"
         style="fill:#855f04;fill-opacity:1;stroke:none;stroke-width:0.5;stroke-miterlimit:4;stroke-dasharray:none" />
    </clipPath>
    <clipPath
       clipPathUnits="userSpaceOnUse"
       id="clipPath10288">
      <rect
         style="fill:#4d4d4d;fill-opacity:1;stroke:none;stroke-width:0.5;stroke-miterlimit:4;stroke-dasharray:none"
         id="rect10290"
         width="1352"
         height="505.16321"
         x="2284"
         y="239.03357" />
    </clipPath>
  </defs>
  <sodipodi:namedview
     id="base"
     pagecolor="#ffffff"
     bordercolor="#666666"
     borderopacity="1.0"
     inkscape:pageopacity="0.0"
     inkscape:pageshadow="2"
     inkscape:zoom="0.175"
     inkscape:cx="505.3831"
     inkscape:cy="-118.31876"
     inkscape:document-units="px"
     inkscape:current-layer="layer1"
     showgrid="false"
     fit-margin-top="0"
     fit-margin-left="0"
     fit-margin-right="0"
     fit-margin-bottom="0"
     inkscape:window-width="1920"
     inkscape:window-height="1016"
     inkscape:window-x="0"
     inkscape:window-y="27"
     inkscape:window-maximized="1" />
  <metadata
     id="metadata8167">
    <rdf:RDF>
      <cc:Work
         rdf:about="">
        <dc:format>image/svg+xml</dc:format>
        <dc:type
           rdf:resource="http://purl.org/dc/dcmitype/StillImage" />
        <dc:title></dc:title>
      </cc:Work>
    </rdf:RDF>
  </metadata>
  <g
     inkscape:label="Capa 1"
     inkscape:groupmode="layer"
     id="layer1"
     transform="translate(5180.5128,3614.291)">
    <path
       style="fill:#f2f2f2;fill-opacity:1"
       d="m -5164.8259,-3587.089 -15.6869,-27.079 15.7905,-0.087 c 8.6848,-0.048 22.8963,-0.048 31.5811,0 l 15.7905,0.087 -15.6868,27.079 c -8.6278,14.8934 -15.7802,27.0789 -15.8943,27.0789 -0.114,0 -7.2664,-12.1855 -15.8941,-27.0789 z m 21.0375,-0.2393 c 2.3759,-1.134 6.0103,-4.4365 7.824,-7.1098 l 1.0855,-1.5998 -1.424,-1.8458 c -2.0454,-2.6514 -4.4336,-4.6367 -7.2791,-6.0516 -2.2837,-1.1355 -2.7117,-1.2342 -5.3498,-1.2342 -2.638,0 -3.066,0.099 -5.3497,1.2342 -2.8455,1.4149 -5.2336,3.4002 -7.2791,6.0516 l -1.424,1.8458 1.0855,1.5998 c 2.5424,3.7472 7.0446,7.2684 10.3949,8.1299 2.0514,0.5275 5.401,0.084 7.7158,-1.0201 z m -8.1429,-2.7597 c -3.2895,-1.7584 -4.6006,-5.766 -2.9168,-8.9158 1.7584,-3.2896 5.7661,-4.6007 8.9159,-2.9169 3.2895,1.7584 4.6006,5.7661 2.9168,8.9159 -1.7584,3.2895 -5.7661,4.6006 -8.9159,2.9168 z m 5.0249,-3.891 c 0.6649,-0.6649 0.9742,-1.308 0.9742,-2.0253 0,-1.4338 -1.5658,-2.9995 -2.9996,-2.9995 -1.4337,0 -2.9995,1.5657 -2.9995,2.9995 0,1.4337 1.5658,2.9995 2.9995,2.9995 0.7174,0 1.3605,-0.3093 2.0254,-0.9742 z m 68.2731,20.3877 c -1.4168,-0.7176 -1.9723,-1.2393 -2.5594,-2.4036 -1.623,-3.2185 -0.3926,-6.8219 2.734,-8.0067 0.5414,-0.2052 2.8188,-0.6546 5.0611,-0.9988 5.0497,-0.7752 5.4528,-0.9693 5.4528,-2.6256 0,-2.0345 -1.1611,-2.8807 -3.9429,-2.8734 -2.5388,0.01 -3.7441,0.6034 -4.3958,2.1767 -0.391,0.9439 -0.4933,0.9836 -2.5333,0.9836 -1.8053,0 -2.1248,-0.088 -2.1186,-0.5832 0.013,-1.0761 1.2211,-3.2688 2.3004,-4.1769 3.3991,-2.8602 11.4961,-2.3526 13.839,0.8675 0.6275,0.8623 0.6923,1.5017 0.7863,7.7472 0.094,6.2498 0.1535,6.8346 0.7257,7.1409 0.3428,0.1834 0.8592,0.2431 1.1474,0.1325 0.4334,-0.1663 0.5241,0.086 0.5241,1.4593 0,1.593 -0.042,1.6688 -1.0415,1.8687 -2.0793,0.4158 -3.2926,0.2372 -4.1395,-0.6098 -0.4499,-0.4499 -0.818,-0.9703 -0.818,-1.1564 0,-0.1861 -0.5288,0.021 -1.175,0.4589 -2.5541,1.7333 -7.0656,2.0077 -9.8468,0.599 z m 7.4176,-3.0944 c 0.6756,-0.1877 1.613,-0.7983 2.083,-1.3569 0.725,-0.8615 0.8546,-1.3434 0.8546,-3.176 0,-1.5997 -0.1042,-2.0961 -0.4013,-1.9124 -0.2207,0.1364 -1.7426,0.4324 -3.382,0.6578 -3.2491,0.4467 -4.4768,1.0842 -4.9768,2.5842 -0.9019,2.7058 1.9549,4.2774 5.8225,3.2033 z m 80.2349,3.0944 c -1.4167,-0.7176 -1.9722,-1.2393 -2.5593,-2.4036 -1.623,-3.2185 -0.3926,-6.8219 2.734,-8.0067 0.5414,-0.2052 2.8188,-0.6546 5.061,-0.9988 5.0497,-0.7752 5.4528,-0.9693 5.4528,-2.6256 0,-2.0345 -1.1611,-2.8807 -3.9429,-2.8734 -2.5388,0.01 -3.7441,0.6034 -4.3958,2.1767 -0.391,0.9439 -0.4932,0.9836 -2.5333,0.9836 -1.8053,0 -2.1248,-0.088 -2.1186,-0.5832 0.013,-1.0761 1.2211,-3.2688 2.3004,-4.1769 3.3991,-2.8602 11.4961,-2.3526 13.839,0.8675 0.6275,0.8623 0.6924,1.5017 0.7863,7.7472 0.094,6.2498 0.1535,6.8346 0.7257,7.1409 0.3429,0.1834 0.8592,0.2431 1.1475,0.1325 0.4333,-0.1663 0.524,0.086 0.524,1.4593 0,1.593 -0.042,1.6688 -1.0415,1.8687 -2.0792,0.4158 -3.2926,0.2372 -4.1395,-0.6098 -0.4499,-0.4499 -0.818,-0.9703 -0.818,-1.1564 0,-0.1861 -0.5287,0.021 -1.175,0.4589 -2.5541,1.7333 -7.0656,2.0077 -9.8468,0.599 z m 7.4176,-3.0944 c 0.6756,-0.1877 1.613,-0.7983 2.083,-1.3569 0.725,-0.8615 0.8546,-1.3434 0.8546,-3.176 0,-1.5997 -0.1042,-2.0961 -0.4013,-1.9124 -0.2207,0.1364 -1.7426,0.4324 -3.3819,0.6578 -3.2491,0.4467 -4.4769,1.0842 -4.9769,2.5842 -0.9019,2.7058 1.9549,4.2774 5.8225,3.2033 z m 37.0428,3.6912 c -1.6232,-0.3866 -3.9916,-1.9025 -4.9637,-3.1769 -0.4819,-0.6319 -1.1619,-2.0667 -1.5111,-3.1885 -2.1997,-7.0679 1.8617,-14.0268 8.4976,-14.5595 5.5717,-0.4472 10.0766,3.6425 10.4604,9.4965 l 0.1583,2.4163 -7.5426,0 c -8.523,0 -8.1304,-0.1492 -7.0048,2.6638 0.8164,2.0403 2.1667,2.8335 4.8257,2.8345 2.501,0 3.6062,-0.4626 4.4306,-1.8583 0.542,-0.9176 0.7005,-0.9737 2.7452,-0.9737 2.0919,0 2.1621,0.027 1.9546,0.7498 -0.359,1.25 -1.9533,3.3608 -3.1453,4.1641 -2.2444,1.5125 -6.0187,2.1194 -8.905,1.4319 z m 7.8881,-12.2952 c 0,-0.7371 -0.8309,-2.6292 -1.4627,-3.3308 -2.7845,-3.0926 -7.866,-1.6147 -8.7033,2.5312 l -0.2187,1.0832 5.1922,0 c 2.8558,0 5.1924,-0.1277 5.1924,-0.2836 z m -22.9963,-1.7161 0,-13.9977 2.1663,0 2.1663,0 0,13.9977 0,13.9978 -2.1663,0 -2.1663,0 0,-13.9978 z m 34.7319,13.5024 c -1.8497,-0.8151 -2.0705,-1.8631 -2.0705,-9.8256 l 0,-7.0096 -1.8331,0 -1.833,0 0,-1.4997 0,-1.4998 1.833,0 1.8331,0 0,-2.9995 0,-2.9995 1.9996,0 1.9997,0 0,2.9995 0,2.9995 1.9997,0 1.9997,0 0,1.4998 0,1.4997 -1.9997,0 -1.9997,0 0,6.3085 c 0,7.3013 0.019,7.356 2.7074,7.356 l 1.6601,0 -0.1008,1.7497 -0.1007,1.7497 -2.4996,0.077 c -1.6119,0.05 -2.8887,-0.094 -3.5952,-0.4057 z m -181.3749,-13.6686 0,-13.8861 7.5821,0.1335 c 8.6245,0.1519 9.6564,0.3757 12.2453,2.6545 2.5732,2.265 4.1687,6.3305 4.1687,10.6223 0,6.4019 -2.5058,11.0641 -7.083,13.1781 -2.0675,0.9549 -2.1344,0.9625 -9.4977,1.0727 l -7.4154,0.1112 0,-13.8861 z m 14.1643,9.3709 c 3.424,-1.4722 4.6668,-4.0579 4.6644,-9.7046 0,-3.2555 -0.099,-3.8748 -0.8738,-5.5293 -1.4867,-3.1761 -3.2998,-4.0244 -9.0397,-4.2295 l -4.2493,-0.1519 0,10.2447 0,10.2446 4.0826,-0.1505 c 2.8406,-0.1048 4.4883,-0.3249 5.4158,-0.7237 z m 35.4943,-5.5386 0,-9.9984 1.9997,0 1.9997,0 0,1.7497 0,1.7497 0.6176,-0.9998 c 1.2325,-1.9954 3.3408,-3.1661 5.7015,-3.1661 l 1.3436,0 0,2.1927 0,2.1928 -0.9719,-0.2134 c -1.4733,-0.3236 -3.4254,0.3516 -4.6401,1.6048 -1.665,1.7178 -2.0534,3.5351 -2.0534,9.6069 l 0,5.2795 -1.9997,0 -1.9997,0 0,-9.9984 z m 13.9977,-3.8327 0,-13.8311 1.9997,0 1.9997,0 0,7.6654 c 0,4.216 0.1149,7.6654 0.2553,7.6654 0.1405,0 1.9752,-1.7247 4.0772,-3.8327 l 3.8219,-3.8327 2.7038,0 2.7038,0 -3.7613,3.711 -3.7614,3.7111 1.5972,2.3713 c 0.8784,1.3042 2.7399,4.1335 4.1366,6.2873 l 2.5396,3.9161 -2.6683,0 -2.6684,0 -2.8684,-4.416 c -1.5777,-2.4288 -2.9977,-4.5587 -3.1555,-4.7331 -0.174,-0.1924 -0.8112,0.1949 -1.6196,0.9842 l -1.3326,1.3013 0,3.4318 0,3.4318 -1.9997,0 -1.9996,0 0,-13.8311 z m 25.1685,13.4145 c -0.077,-0.2292 -1.4423,-4.541 -3.0342,-9.5818 -1.5918,-5.0409 -2.965,-9.3527 -3.0515,-9.5818 -0.1164,-0.3088 0.4524,-0.4166 2.1986,-0.4166 l 2.3557,0 0.4592,1.5831 c 0.2526,0.8707 1.1203,4.0952 1.9284,7.1655 0.808,3.0703 1.5449,5.5824 1.6376,5.5824 0.093,0 0.8295,-2.5121 1.6376,-5.5824 0.808,-3.0703 1.6758,-6.2948 1.9283,-7.1655 l 0.4592,-1.5831 1.9739,0 1.9738,0 0.4593,1.5831 c 0.2526,0.8707 1.1203,4.0952 1.9283,7.1655 0.8081,3.0703 1.5536,5.5824 1.6567,5.5824 0.1032,0 0.7497,-1.9871 1.4368,-4.4159 0.687,-2.4288 1.6244,-5.6533 2.0831,-7.1655 l 0.834,-2.7496 2.1461,0 c 1.1804,0 2.1434,0.038 2.14,0.083 0,0.046 -1.4142,4.5076 -3.1351,9.9151 l -3.1289,9.8317 -2.1801,0.098 -2.18,0.098 -0.4636,-1.5979 c -0.2551,-0.8789 -1.1248,-4.11 -1.9328,-7.1803 -0.8081,-3.0704 -1.545,-5.5825 -1.6376,-5.5825 -0.093,0 -0.8295,2.5121 -1.6376,5.5825 -0.8081,3.0703 -1.6758,6.2948 -1.9284,7.1655 l -0.4592,1.583 -2.1639,0 c -1.4343,0 -2.211,-0.1404 -2.3037,-0.4166 z m 48.1531,-13.4145 0,-13.8311 2.1663,0 2.1663,0 0,13.8311 0,13.8311 -2.1663,0 -2.1663,0 0,-13.8311 z m 55.3244,12.3313 c 0,-0.2888 0.1985,-0.4029 0.4999,-0.2872 0.2749,0.1056 0.4999,0.2348 0.4999,0.2872 0,0.053 -0.2249,0.1818 -0.4999,0.2872 -0.3015,0.1156 -0.4999,0 -0.4999,-0.2872 z m 1.6079,-0.2753 c -0.124,-0.6081 -0.078,-0.8272 0.1311,-0.6186 0.1777,0.1778 0.2641,0.6016 0.1921,0.9418 -0.097,0.4582 -0.1809,0.3744 -0.3232,-0.3232 z m -1.8832,-0.7588 c 0.2987,-0.2986 0.7029,-0.4881 0.8982,-0.421 0.1953,0.067 -0.049,0.3115 -0.5431,0.543 -0.83,0.3892 -0.857,0.3799 -0.3551,-0.122 z"
       id="path10344"
       inkscape:connector-curvature="0"
       inkscape:export-xdpi="84.150002"
       inkscape:export-ydpi="84.150002" />
  </g>
</svg>
