<?xml version="1.0" encoding="UTF-8" standalone="no"?>
<!-- Created with Inkscape (http://www.inkscape.org/) -->

<svg
   xmlns:dc="http://purl.org/dc/elements/1.1/"
   xmlns:cc="http://creativecommons.org/ns#"
   xmlns:rdf="http://www.w3.org/1999/02/22-rdf-syntax-ns#"
   xmlns:svg="http://www.w3.org/2000/svg"
   xmlns="http://www.w3.org/2000/svg"
   xmlns:sodipodi="http://sodipodi.sourceforge.net/DTD/sodipodi-0.dtd"
   xmlns:inkscape="http://www.inkscape.org/namespaces/inkscape"
   width="25.4mm"
   height="27.093334mm"
   viewBox="0 0 90 96.000004"
   id="svg8162"
   version="1.1"
   inkscape:version="0.91 r13725"
   sodipodi:docname="lib-server.svg">
  <defs
     id="defs8164" />
  <sodipodi:namedview
     id="base"
     pagecolor="#ffffff"
     bordercolor="#666666"
     borderopacity="1.0"
     inkscape:pageopacity="0.0"
     inkscape:pageshadow="2"
     inkscape:zoom="1.4"
     inkscape:cx="257.44193"
     inkscape:cy="-160.32856"
     inkscape:document-units="px"
     inkscape:current-layer="layer1"
     showgrid="false"
     fit-margin-top="0"
     fit-margin-left="0"
     fit-margin-right="0"
     fit-margin-bottom="0"
     inkscape:window-width="1920"
     inkscape:window-height="1016"
     inkscape:window-x="0"
     inkscape:window-y="27"
     inkscape:window-maximized="1" />
  <metadata
     id="metadata8167">
    <rdf:RDF>
      <cc:Work
         rdf:about="">
        <dc:format>image/svg+xml</dc:format>
        <dc:type
           rdf:resource="http://purl.org/dc/dcmitype/StillImage" />
        <dc:title></dc:title>
      </cc:Work>
    </rdf:RDF>
  </metadata>
  <g
     inkscape:label="Capa 1"
     inkscape:groupmode="layer"
     id="layer1"
     transform="translate(2031.4115,553.48472)">
    <g
       id="g5334"
       transform="matrix(1.2,0,0,1.2,-2052.4115,-564.88472)"
       style="fill:#ffa022;fill-opacity:1"
       inkscape:export-xdpi="84.150002"
       inkscape:export-ydpi="84.150002">
      <g
         id="g5318"
         style="fill:#ffa022;fill-opacity:1">
        <g
           id="g5320"
           style="fill:#ffa022;fill-opacity:1">
          <path
             id="path5322"
             d="m 59.2,61.5 0.4,-0.8 c 3.5,-6.8 10.5,-11 18.1,-11 1.3,0 2.6,0.1 4,0.4 l 1.8,0.4 0,-12 -66,0 0,23 41.7,0 z m -38.7,-20 60,0 0,5.4 C 71,45.8 62.1,50.4 57.5,58.5 l -37,0 0,-17 z m 63,-32 -66,0 0,23 66,0 0,-23 z m -63,20 0,-17 60,0 0,17 -60,0 z m 3,-7 15,0 0,-3 -15,0 0,3 z m 33.8,47.9 c 0,-0.7 0,-1.5 0.1,-2.3 l 0.2,-1.6 -40.1,0 0,23 52,0 -3.7,-2.7 C 60.5,83 57.3,76.9 57.3,70.4 Z m -36.8,16.1 0,-17 33.8,0 c 0,0.3 0,0.6 0,1 0,6 2.4,11.8 6.6,16.1 L 20.5,86.5 Z m 3,-35 15,0 0,-3 -15,0 0,3 z m 0,28 15,0 0,-3 -15,0 0,3 z M 92.5,66 91,66 c -0.6,0 -1.2,-0.2 -1.7,-0.5 -0.8,-0.5 -1.4,-1.2 -1.6,-2.1 -0.2,-0.9 -0.1,-1.8 0.4,-2.6 l 0.8,-1.3 -7,-4 -0.9,1.3 c -0.3,0.5 -0.7,1 -1.3,1.3 -0.5,0.3 -1.1,0.5 -1.7,0.5 -1.2,0 -2.4,-0.7 -3,-1.7 l -0.8,-1.3 -7,4 0.8,1.3 c 0.3,0.5 0.5,1.1 0.5,1.7 0,1.9 -1.6,3.4 -3.5,3.4 l -1.5,0 0,6.6 0,1.5 1.5,0 c 0.6,0 1.2,0.2 1.7,0.5 1.6,0.9 2.2,3 1.2,4.7 l -0.7,1.3 7,4 0.7,-1.3 c 0.3,-0.5 0.7,-0.9 1.3,-1.3 0.5,-0.3 1.1,-0.5 1.7,-0.5 1.2,0 2.4,0.7 3,1.7 l 0.8,1.3 7,-4 -0.7,-1.3 c -0.3,-0.5 -0.5,-1.1 -0.5,-1.7 0,-1.9 1.6,-3.4 3.5,-3.4 l 1.5,0 0,-6.6 0,-1.5 z m -3,5.2 c -2.8,0.7 -5,3.2 -5,6.2 0,0.6 0.1,1.2 0.3,1.8 l -2.1,1.2 c -1.2,-1.3 -2.9,-2 -4.7,-2 -1.1,0 -2.2,0.3 -3.2,0.9 -0.5,0.3 -1,0.7 -1.4,1.1 L 71.3,79.2 C 72.1,76.4 71,73.3 68.4,71.8 67.9,71.5 67.3,71.3 66.7,71.1 l 0,-2.4 c 2.8,-0.7 5,-3.2 5,-6.2 0,-0.6 -0.1,-1.2 -0.3,-1.8 l 2.1,-1.2 c 1.2,1.3 2.9,2 4.7,2 1.1,0 2.2,-0.3 3.2,-0.9 0.5,-0.3 1,-0.7 1.5,-1.2 l 2.1,1.2 c -0.3,1.1 -0.4,2.3 -0.1,3.5 0.4,1.7 1.5,3 3,3.9 0.5,0.3 1.1,0.5 1.7,0.7 l -0.1,2.5 z m -8.2,-6.8 c -1,-0.6 -2.1,-0.9 -3.2,-0.9 -2.3,0 -4.5,1.2 -5.7,3.3 -1.8,3.1 -0.7,7.1 2.4,8.9 1,0.6 2.1,0.9 3.2,0.9 2.3,0 4.5,-1.2 5.7,-3.3 0.9,-1.5 1.1,-3.3 0.7,-4.9 -0.6,-1.8 -1.6,-3.2 -3.1,-4 z M 81,71.7 c -0.6,1.1 -1.8,1.8 -3,1.8 -0.6,0 -1.2,-0.2 -1.7,-0.5 -1.7,-1 -2.2,-3.1 -1.3,-4.8 0.6,-1.1 1.8,-1.8 3,-1.8 0.6,0 1.2,0.2 1.7,0.5 0.8,0.5 1.4,1.2 1.6,2.1 0.3,1 0.2,1.9 -0.3,2.7 z"
             inkscape:connector-curvature="0"
             style="fill:#ffa022;fill-opacity:1" />
        </g>
      </g>
    </g>
  </g>
</svg>
