<?xml version="1.0" encoding="UTF-8" standalone="no"?>
<!-- Created with Inkscape (http://www.inkscape.org/) -->

<svg
   xmlns:sketch="http://www.bohemiancoding.com/sketch/ns"
   xmlns:dc="http://purl.org/dc/elements/1.1/"
   xmlns:cc="http://creativecommons.org/ns#"
   xmlns:rdf="http://www.w3.org/1999/02/22-rdf-syntax-ns#"
   xmlns:svg="http://www.w3.org/2000/svg"
   xmlns="http://www.w3.org/2000/svg"
   xmlns:sodipodi="http://sodipodi.sourceforge.net/DTD/sodipodi-0.dtd"
   xmlns:inkscape="http://www.inkscape.org/namespaces/inkscape"
   id="svg2"
   version="1.1"
   inkscape:version="0.91 r13725"
   width="160"
   height="118.26933"
   viewBox="0 0 160.00001 118.26933"
   sodipodi:docname="mentions.svg">
  <metadata
     id="metadata8">
    <rdf:RDF>
      <cc:Work
         rdf:about="">
        <dc:format>image/svg+xml</dc:format>
        <dc:type
           rdf:resource="http://purl.org/dc/dcmitype/StillImage" />
        <dc:title></dc:title>
      </cc:Work>
    </rdf:RDF>
  </metadata>
  <defs
     id="defs6" />
  <sodipodi:namedview
     pagecolor="#ffffff"
     bordercolor="#666666"
     borderopacity="1"
     objecttolerance="10"
     gridtolerance="10"
     guidetolerance="10"
     inkscape:pageopacity="0"
     inkscape:pageshadow="2"
     inkscape:window-width="1920"
     inkscape:window-height="1016"
     id="namedview4"
     showgrid="false"
     inkscape:snap-bbox="true"
     inkscape:snap-bbox-midpoints="true"
     inkscape:snap-bbox-edge-midpoints="true"
     inkscape:bbox-nodes="true"
     inkscape:bbox-paths="true"
     inkscape:object-paths="true"
     inkscape:snap-intersection-paths="true"
     inkscape:snap-smooth-nodes="true"
     inkscape:snap-midpoints="true"
     showguides="true"
     inkscape:guide-bbox="true"
     inkscape:zoom="0.30595598"
     inkscape:cx="784.00193"
     inkscape:cy="129.59778"
     inkscape:window-x="0"
     inkscape:window-y="27"
     inkscape:window-maximized="1"
     inkscape:current-layer="svg2"
     fit-margin-top="0"
     fit-margin-left="0"
     fit-margin-right="0"
     fit-margin-bottom="0">
    <sodipodi:guide
       position="404.14225,379.07008"
       orientation="0,1"
       id="guide4769" />
    <sodipodi:guide
       position="29.159935,306.2692"
       orientation="1,0"
       id="guide4771" />
    <sodipodi:guide
       position="516.23249,126.57815"
       orientation="1,0"
       id="guide4773" />
    <sodipodi:guide
       position="516.23249,396.59313"
       orientation="0,1"
       id="guide4775" />
    <sodipodi:guide
       position="231.38461,119.06695"
       orientation="0,1"
       id="guide4777" />
    <sodipodi:guide
       position="258.54049,102.31119"
       orientation="0,1"
       id="guide4779" />
    <sodipodi:guide
       position="538.10938,379.06758"
       orientation="1,0"
       id="guide4781" />
  </sodipodi:namedview>
  <g
     id="g4817"
     transform="matrix(0.29450026,0,0,0.29450026,192.6983,28.939216)">
    <path
       sodipodi:nodetypes="cccscscscscc"
       inkscape:connector-curvature="0"
       id="path4767"
       d="m -445.3255,298.3291 87.53001,-97.87206 220.46277,1.15557 c 0,0 21.10719,-0.59585 21.11906,-17.35177 l 0.1839,-259.607807 c 0,0 -0.1839,-17.918371 -22.06079,-17.918371 l -487.81648,0 c 0,0 -23.48721,-2e-6 -23.41583,17.523049 l 1.05644,259.337389 c 0,0 -2.14624,17.3894 23.10334,17.4215 l 202.5765,0.25755 z"
       style="fill:none;fill-rule:evenodd;stroke:#ffa022;stroke-width:10;stroke-linecap:butt;stroke-linejoin:round;stroke-miterlimit:4;stroke-dasharray:none;stroke-opacity:1" />
    <g
       style="fill:#c85637;fill-opacity:1"
       transform="translate(-428.43092,-61.656127)"
       id="g4811">
      <g
         transform="matrix(2.9816702,0,0,2.9816702,-110.59985,-39.511189)"
         style="fill:#c85637;fill-opacity:1;fill-rule:evenodd;stroke:none;stroke-width:1"
         sketch:type="MSPage"
         id="g4797">
        <path
           style="fill:#c85637;fill-opacity:1"
           inkscape:connector-curvature="0"
           d="m 77.051481,39.410666 c -4.305,-11.73 -15.5025,-18.52125 -28.6275,-17.26125 -11.15625,1.065 -20.53875,8.08125 -24.48375,18.31875 -3.94875,10.2375 -1.7925,21.285 5.76,29.5575 5.13375,5.625 13.44,9.2625 21.16875,9.27375 l 0.0225,0 c 6.83625,0 12.9075,-2.685 17.5575,-7.75875 0.70125,-0.765 0.64875,-1.95 -0.1125,-2.65125 -0.7575,-0.69375 -1.94625,-0.645 -2.6475,0.11625 -3.93,4.28625 -9.22875,6.5175 -14.81625,6.54375 -6.72,-0.0075 -13.94625,-3.16875 -18.405,-8.05125 -6.57375,-7.2 -8.4525,-16.8 -5.02875,-25.68 3.48,-9.0375 11.46,-14.9925 21.345,-15.9375 11.2725,-1.06125 21.04875,4.74 24.74625,14.82375 1.2225,3.33 2.64375,11.0775 0.55875,14.745 -0.5775,1.02 -1.35375,1.59 -2.445,1.79625 -1.7325,0.32625 -3.29625,-0.57 -3.9975,-2.28375 -0.15375,-0.37125 -0.32625,-1.425 -0.495,-2.44125 -0.43875,-2.65125 -1.03875,-6.285 -2.73375,-9.645 -2.77125,-5.4825 -8.3775,-9.15375 -14.28375,-9.3525 -6.4275,-0.23625 -12.7575,4.155 -15.07875,10.39875 -0.67125,1.78875 -1.0125,3.67875 -1.0125,5.6175 0,8.86875 7.215,16.0875 16.08375,16.0875 3.6225,0 7.0425,-1.1775 9.8925,-3.40125 0.8175,-0.6375 0.96375,-1.815 0.32625,-2.6325 -0.6375,-0.8175 -1.815,-0.96 -2.6325,-0.3225 -2.18625,1.7025 -4.8075,2.60625 -7.58625,2.60625 -6.79875,0 -12.33375,-5.535 -12.33375,-12.3375 0,-1.48875 0.2625,-2.93625 0.7725,-4.305 1.78125,-4.78125 6.50625,-8.10375 11.445,-7.965 4.485,0.15 8.9325,3.0825 11.05875,7.2975 1.43625,2.84625 1.9875,6.15 2.385,8.565 0.23625,1.44375 0.40875,2.48625 0.72,3.2475 1.38,3.3825 4.65,5.21625 8.16375,4.54875 2.16,-0.405 3.89625,-1.66125 5.01375,-3.62625 3.105,-5.47125 0.765,-14.98875 -0.3,-17.89125"
           sketch:type="MSShapeGroup"
           id="path4799" />
      </g>
    </g>
  </g>
</svg>
