<?xml version="1.0" encoding="UTF-8" standalone="no"?>
<!-- Created with Inkscape (http://www.inkscape.org/) -->

<svg
   xmlns:dc="http://purl.org/dc/elements/1.1/"
   xmlns:cc="http://creativecommons.org/ns#"
   xmlns:rdf="http://www.w3.org/1999/02/22-rdf-syntax-ns#"
   xmlns:svg="http://www.w3.org/2000/svg"
   xmlns="http://www.w3.org/2000/svg"
   xmlns:sodipodi="http://sodipodi.sourceforge.net/DTD/sodipodi-0.dtd"
   xmlns:inkscape="http://www.inkscape.org/namespaces/inkscape"
   id="svg2"
   version="1.1"
   inkscape:version="0.91 r13725"
   width="160"
   height="163.61359"
   viewBox="0 0 160 163.61358"
   sodipodi:docname="openbazaar.svg">
  <metadata
     id="metadata8">
    <rdf:RDF>
      <cc:Work
         rdf:about="">
        <dc:format>image/svg+xml</dc:format>
        <dc:type
           rdf:resource="http://purl.org/dc/dcmitype/StillImage" />
        <dc:title></dc:title>
      </cc:Work>
    </rdf:RDF>
  </metadata>
  <defs
     id="defs6" />
  <sodipodi:namedview
     pagecolor="#ffffff"
     bordercolor="#666666"
     borderopacity="1"
     objecttolerance="10"
     gridtolerance="10"
     guidetolerance="10"
     inkscape:pageopacity="0"
     inkscape:pageshadow="2"
     inkscape:window-width="1920"
     inkscape:window-height="1016"
     id="namedview4"
     showgrid="false"
     inkscape:snap-bbox="true"
     inkscape:snap-bbox-midpoints="true"
     inkscape:snap-bbox-edge-midpoints="true"
     inkscape:bbox-nodes="true"
     inkscape:bbox-paths="true"
     inkscape:object-paths="true"
     inkscape:snap-intersection-paths="true"
     inkscape:snap-smooth-nodes="true"
     inkscape:snap-midpoints="true"
     showguides="true"
     inkscape:guide-bbox="true"
     inkscape:zoom="0.4326871"
     inkscape:cx="-241.94141"
     inkscape:cy="-3.1692585"
     inkscape:window-x="0"
     inkscape:window-y="27"
     inkscape:window-maximized="1"
     inkscape:current-layer="svg2"
     fit-margin-top="0"
     fit-margin-left="0"
     fit-margin-right="0"
     fit-margin-bottom="0" />
  <g
     id="g4495"
     transform="matrix(0.73765862,0,0,0.73765862,378.11013,278.91895)">
    <g
       transform="matrix(0.26143791,0,0,0.26143791,-357.56021,-161.03986)"
       id="g4479">
      <path
         style="fill:#000000;stroke:#ffffff;stroke-width:10;stroke-miterlimit:4;stroke-dasharray:none"
         d="m -452.1302,-225.39235 c -11.06271,-3.8748 -21.20666,-14.16877 -24.99031,-25.35986 -1.99311,-5.89512 -2.00969,-8.15253 -2.00969,-273.55583 0,-265.4033 0.0166,-267.66071 2.00969,-273.55582 3.85954,-11.41557 14.01891,-21.57495 25.43448,-25.43449 5.89512,-1.99311 8.15253,-2.00969 273.55583,-2.00969 265.403301,0 267.660711,0.0166 273.555831,2.00969 11.415559,3.85954 21.574939,14.01892 25.434479,25.43449 1.99311,5.89511 2.00969,8.15252 2.00969,273.55582 0,265.4033 -0.0166,267.66071 -2.00969,273.55583 -3.85954,11.41556 -14.01892,21.57494 -25.434479,25.43448 -5.77293,1.95179 -8.44324,2.00969 -92.6899799,2.00969 l -86.7458001,0 -16.468621,-32.25 c -9.05774,-17.7375 -30.40877,-59.86004 -47.44673,-93.60565 l -30.97812,-61.35565 -10.48023,20.35565 c -10.15938,19.73245 -23.05752,45.06966 -62.28628,122.35565 -10.32923,20.35 -19.83899,38.6875 -21.13279,40.75 l -2.35237,3.75 -85.73745,-0.0789 c -81.96345,-0.0755 -85.97956,-0.16379 -91.23746,-2.00541 z m 120.96784,-1.16569 c -0.0177,-0.6875 -9.60548,-42.875 -21.3062,-93.75 l -21.27405,-92.5 -6.16792,-0.29705 -6.16792,-0.29704 -0.9839,-3.70296 c -0.54115,-2.03662 -3.2226,-12.97048 -5.95878,-24.29745 l -4.97487,-20.59451 3.90585,-9.90549 c 2.14821,-5.44803 15.65498,-40.2805 30.01504,-77.4055 14.36006,-37.125 27.90636,-72.1125 30.10289,-77.75 l 3.99368,-10.25 11.20041,0 c 24.98035,0 53.80459,-6.00545 74.32083,-15.48453 22.75903,-10.51532 43.82682,-30.22528 58.27109,-54.51547 l 5.05456,-8.5 7.2e-4,-38.66667 c 5.4e-4,-28.45212 0.30728,-38.76884 1.16116,-39.05347 0.63824,-0.21275 4.80074,0.69646 9.25,2.02045 5.77693,1.71908 11.55367,2.55767 20.2069,2.93338 14.49415,0.6293 21.92527,-0.75472 39.88267,-7.428 18.419021,-6.84484 26.849781,-8.59268 42.000001,-8.70732 14.05602,-0.10636 28.06809,1.83372 28.89992,4.00142 0.62695,1.6338 0.63603,1.62858 -7.44179,4.27861 -9.7715,3.20566 -21.18053,10.35775 -30.06865,18.84941 -6.89008,6.58274 -15.88948,18.04292 -15.88948,20.23427 0,0.40379 1.9125,1.58399 4.25,2.62265 12.1893,5.41628 42.778,29.95817 42.75678,34.30456 -0.007,1.47595 0.15046,1.48425 -18.00678,-0.94768 -15.7712,-2.11236 -31.66693,-0.15005 -52.954261,6.53711 -19.54817,6.14084 -32.62832,6.83562 -49.16811,2.61166 -4.05769,-1.03626 -7.57959,-1.69107 -7.82642,-1.45512 -0.85891,0.82101 5.73175,12.90617 10.46337,19.18651 6.58915,8.74583 18.37773,20.43988 28.48542,28.25697 26.33118,20.36402 49.561561,29.25387 87.155281,33.35275 6.7896,0.74028 10.23027,1.39603 7.64594,1.45723 -6.34239,0.1502 -26.02366,-2.49151 -36.10219,-4.8458 -10.51114,-2.45535 -24.389931,-7.36232 -32.808641,-11.59979 -16.06291,-8.08509 -37.28953,-24.56857 -49.04683,-38.08719 -2.93896,-3.37923 -5.48631,-6.01147 -5.66079,-5.84943 -0.49068,0.45571 4.25878,9.55647 13.56537,25.99349 36.32951,64.1641 87.967201,124.98207 147.7518611,174.01957 15.7693699,12.9346 37.4614499,28.85231 38.2475699,28.06619 0.44457,-0.44456 -42.0937399,-120.49464 -56.54598,-159.58201 -2.44338,-6.60836 -3.12285,-7.57151 -5.73663,-8.13168 l -2.96496,-0.63544 3.19098,-0.11832 c 1.75504,-0.0651 3.46186,0.31997 3.79293,0.85565 0.64944,1.05081 10.8817,29.37039 40.61832,112.41825 10.41639,29.09071 19.58258,54.29071 20.3693,56 1.31752,2.86253 1.05941,4.9229 -3.27057,26.10779 l -4.70096,23 -7.39548,0.5 -7.39547,0.5 -21.3274299,93.5 c -11.7300901,51.425 -21.3396301,93.63264 -21.3545301,93.79476 -0.0149,0.16211 26.41041008,0.15647 58.72291,-0.0125 55.73478,-0.29152 58.99562,-0.40821 63.53582,-2.27373 10.293709,-4.22957 19.516419,-13.65001 23.270589,-23.76949 1.90689,-5.1401 1.94359,-10.29074 1.94359,-272.73904 0,-262.44829 -0.0367,-267.59893 -1.94359,-272.739 -3.87102,-10.43445 -13.38295,-19.94638 -23.817409,-23.81741 -5.14006,-1.90689 -10.2907,-1.94359 -272.739001,-1.94359 -262.4483,0 -267.59894,0.0367 -272.739,1.94359 -10.11135,3.75116 -19.51574,12.95331 -23.78203,23.27059 -1.95265,4.72217 -1.98244,8.3098 -2.24,269.75035 -0.16341,165.8803 0.0974,266.90325 0.69737,270.14892 2.79703,15.13054 15.723,28.43202 30.47075,31.35595 2.2511,0.44631 28.95541,0.86077 59.34291,0.92103 43.60738,0.0865 55.24322,-0.15384 55.21784,-1.14043 z m 52.21197,-1.5 c -35.87369,-50.42627 -53.22963,-76.03666 -52.97241,-78.16601 0.23773,-1.96807 14.30687,-12.18948 75.0203,-54.50317 41.10023,-28.64445 74.73773,-52.41501 74.75,-52.82347 0.0123,-0.40846 -28.8902,-0.86183 -64.2277,-1.00748 -35.3375,-0.14565 12.03798,-0.37396 105.27885,-0.50735 l 169.528851,-0.24252 4.37132,-22.09817 c 2.60586,-13.17334 3.99072,-22.36143 3.42894,-22.75 -18.5035,-12.79863 -48.15497,-36.66216 -66.81783,-53.77509 -57.75231,-52.95601 -103.922491,-114.21745 -138.173031,-183.3365 -4.87691,-9.8418 -9.17157,-17.92705 -9.54371,-17.96721 -0.37213,-0.0402 -2.13053,2.51447 -3.90755,5.67697 -1.77702,3.1625 -5.20983,8.56537 -7.62847,12.00638 -3.49513,5.20932 -6.32611,9.44996 -7.87281,11.24362 -21.21841,25.30686 -47.29946,40.13468 -83.41456,47.42354 -12.04004,2.42996 -38.19808,5.01835 -44.30026,4.38359 l -2.95263,-0.30713 -33.35646,86 c -18.34605,47.3 -33.36415,86.57967 -33.37356,87.28815 -0.0155,1.16915 7.62267,33.43802 10.0509,42.46185 l 1.0091,3.75 6.46145,0 c 6.06507,0 6.46146,0.1403 6.46146,2.28699 0,2.00333 41.28232,183.22496 42.47631,186.46301 0.35231,0.95544 6.49331,1.25 26.0604,1.25 l 25.59948,0 z m 251.313041,-4.5 c 0.8961,-3.9875 10.52662,-46.175 21.4011701,-93.75 10.87455,-47.575 19.5955099,-86.8375 19.3799199,-87.25 -0.59171,-1.13217 -189.506901,-0.93785 -189.107271,0.19451 0.18333,0.51949 33.97083,24.4039 75.08333,53.07649 58.057871,40.49058 74.750001,52.59332 74.750001,54.198 0,1.13632 -11.8125,18.87708 -26.25,39.42391 -14.4375,20.54683 -26.86739,38.2577 -27.62197,39.35748 -1.36087,1.98342 -1.16102,1.99961 24.68179,1.99961 l 26.05376,0 z m -196.533981,-95.75 c 22.18468,-43.725 40.83199,-80.14001 41.43846,-80.92225 0.60647,-0.78223 -0.94021,0.11777 -3.43706,2 -2.49686,1.88224 -35.90248,25.24725 -74.23471,51.92225 -38.33224,26.675 -69.58936,49.03347 -69.46027,49.68549 0.12909,0.65202 12.38471,18.46909 27.23471,39.59349 l 27,38.40801 5.56154,-10.5935 c 3.05885,-5.82642 23.71264,-46.36849 45.89733,-90.09349 z m 169.464211,60.63461 c 14.60378,-20.82596 26.32305,-38.23636 26.04282,-38.68978 -0.28023,-0.45342 -31.66219,-22.52889 -69.7377,-49.05659 -38.075511,-26.5277 -71.253201,-49.83057 -73.728201,-51.78414 -2.475,-1.95358 -3.99435,-2.88869 -3.37634,-2.07803 0.61802,0.81066 19.68147,38.14893 42.36323,82.97393 47.348511,93.57282 49.927661,98.49064 51.052931,97.34555 0.45701,-0.46505 12.77947,-17.88497 27.38326,-38.71094 z M -118.6302,-716.21411 c 7.15,-2.26128 16.53721,-4.78248 20.860471,-5.60267 9.65031,-1.83082 32.34916,-1.90147 42.43359,-0.13207 l 7.29406,1.2798 -6.79406,-6.89939 c -8.68697,-8.82164 -21.06249,-18.16536 -31.24654,-23.59166 -4.40027,-2.34456 -8.27696,-4.71016 -8.61486,-5.25689 -1.09414,-1.77037 5.87613,-12.00926 13.56734,-19.92957 8.71005,-8.96948 19.20497,-16.07863 30.4642,-20.63612 4.40706,-1.78388 7.31023,-3.44933 6.5,-3.72883 -4.18388,-1.44327 -14.41596,-2.59653 -23.03739,-2.59653 -12.93621,0 -23.6587,2.16344 -39.926811,8.0559 -21.45831,7.77239 -24.59995,8.41656 -40.5,8.30419 -13.15527,-0.093 -22.32765,-1.5491 -30.75,-4.88163 -1.6474,-0.65184 -1.75,1.45267 -1.75,35.89423 l 0,36.58666 3.80998,1.94371 c 3.69401,1.88454 12.56251,4.46869 18.69002,5.44599 1.65,0.26317 8.175,0.33849 14.5,0.16739 10.20489,-0.27605 12.96404,-0.77411 24.5,-4.42251 z"
         id="path4463"
         inkscape:connector-curvature="0"
         sodipodi:nodetypes="sssssssssssscsscssscsscscccsscssscssscssssssssssscssscssssssscsssssccsssscccssssssssssssssscssscsscsssscsccsscscscsssscsssscssssscssssssscssssssssssssscssssssssssscssss" />
      <path
         style="opacity:0;fill:none;fill-rule:evenodd;stroke:#ffffff;stroke-width:10;stroke-linecap:butt;stroke-linejoin:miter;stroke-miterlimit:4;stroke-dasharray:none;stroke-opacity:1"
         d="m -395.11311,-461.51989 c 0,0 79.50102,-53.28815 128.48291,-120.78815 48.98189,-67.5 88.32339,-132.92697 88.32339,-132.92697"
         id="path4465"
         inkscape:connector-curvature="0" />
      <path
         style="fill:none;fill-rule:evenodd;stroke:#ffffff;stroke-width:10;stroke-linecap:butt;stroke-linejoin:miter;stroke-miterlimit:4;stroke-dasharray:none;stroke-opacity:1"
         d="m -395.11311,-461.51989 c 0,0 75.93579,-58.67284 128.48291,-120.78815 52.54712,-62.11531 88.32339,-132.92697 88.32339,-132.92697"
         id="path4467"
         inkscape:connector-curvature="0" />
      <path
         style="fill:none;fill-rule:evenodd;stroke:#ffffff;stroke-width:10;stroke-linecap:butt;stroke-linejoin:miter;stroke-miterlimit:4;stroke-dasharray:none;stroke-opacity:1"
         d="m -26.439219,-632.18973 c 0,0 -49.612037,1.01904 -86.529031,-17.64972 -39.34809,-19.89815 -65.33856,-65.39556 -65.33856,-65.39556"
         id="path4469"
         inkscape:connector-curvature="0"
         sodipodi:nodetypes="csc" />
      <path
         style="fill:none;fill-rule:evenodd;stroke:#ffffff;stroke-width:10;stroke-linecap:butt;stroke-linejoin:miter;stroke-miterlimit:4;stroke-dasharray:none;stroke-opacity:1"
         d="m -381.34409,-415.06383 394.487831,1.50579"
         id="path4471"
         inkscape:connector-curvature="0"
         sodipodi:nodetypes="cc" />
      <path
         style="fill:none;fill-rule:evenodd;stroke:#ffffff;stroke-width:10;stroke-linecap:butt;stroke-linejoin:miter;stroke-miterlimit:4;stroke-dasharray:none;stroke-opacity:1"
         d="m -395.11311,-461.51989 431.340871,1.36368"
         id="path4473"
         inkscape:connector-curvature="0" />
    </g>
    <g
       transform="translate(-233.69551,552.19796)"
       style="font-style:normal;font-weight:normal;font-size:40px;line-height:100%;font-family:sans-serif;letter-spacing:0px;word-spacing:0px;fill:#000000;fill-opacity:1;stroke:none;stroke-width:1px;stroke-linecap:butt;stroke-linejoin:miter;stroke-opacity:1"
       id="flowRoot4487">
      <path
         d="m -267.24594,-745.0706 c -6.88,0 -11.64,5.24 -11.64,14.32 0,9.24 4.76,14.2 11.64,14.2 6.92,0 11.64,-5.12 11.64,-14.24 0,-9.28 -4.72,-14.28 -11.64,-14.28 z m 0,3.12 c 4.72,0 7.6,3.24 7.6,11.16 0,8 -2.96,11.12 -7.6,11.12 -4.48,0 -7.6,-3.12 -7.6,-11.08 0,-7.96 3,-11.2 7.6,-11.2 z"
         style="font-style:normal;font-variant:normal;font-weight:normal;font-stretch:normal;font-family:'Fira Sans';-inkscape-font-specification:'Fira Sans';fill:#ffffff"
         id="path4528"
         inkscape:connector-curvature="0" />
      <path
         d="m -239.94969,-738.5906 c -2.4,0 -4.68,1.16 -6.24,3.32 l -0.28,-2.84 -3.16,0 0,29.6 3.68,-0.44 0,-10 c 1.36,1.64 3.24,2.4 5.52,2.4 5.44,0 8.28,-4.64 8.28,-11.04 0,-6.64 -2.2,-11 -7.8,-11 z m -1.36,19.04 c -1.92,0 -3.56,-0.92 -4.64,-2.56 l 0,-10.28 c 1.12,-1.68 2.84,-3.28 5.08,-3.28 3.16,0 4.76,2.6 4.76,8.08 0,5.52 -1.84,8.04 -5.2,8.04 z"
         style="font-style:normal;font-variant:normal;font-weight:normal;font-stretch:normal;font-family:'Fira Sans';-inkscape-font-specification:'Fira Sans';fill:#ffffff"
         id="path4530"
         inkscape:connector-curvature="0" />
      <path
         d="m -209.95969,-728.1906 c 0,-6.44 -3,-10.4 -8.68,-10.4 -5.44,0 -8.76,4.68 -8.76,11.24 0,6.68 3.44,10.8 9.32,10.8 2.92,0 5.28,-1 7.36,-2.64 l -1.6,-2.2 c -1.84,1.28 -3.4,1.84 -5.48,1.84 -3.04,0 -5.32,-1.88 -5.68,-6.76 l 13.44,0 c 0.04,-0.48 0.08,-1.16 0.08,-1.88 z m -3.64,-0.84 -9.88,0 c 0.28,-4.68 2.12,-6.64 4.92,-6.64 3.32,0 4.96,2.28 4.96,6.4 l 0,0.24 z"
         style="font-style:normal;font-variant:normal;font-weight:normal;font-stretch:normal;font-family:'Fira Sans';-inkscape-font-specification:'Fira Sans';fill:#ffffff"
         id="path4532"
         inkscape:connector-curvature="0" />
      <path
         d="m -193.92844,-738.5906 c -2.76,0 -5,1.44 -6.44,3.6 l -0.32,-3.12 -3.16,0 0,21.08 3.68,0 0,-14.96 c 1.4,-2.24 3,-3.72 5.36,-3.72 2.04,0 3.32,0.92 3.32,4.08 l 0,14.6 3.68,0 0,-15.12 c 0,-4 -2.24,-6.44 -6.12,-6.44 z"
         style="font-style:normal;font-variant:normal;font-weight:normal;font-stretch:normal;font-family:'Fira Sans';-inkscape-font-specification:'Fira Sans';fill:#ffffff"
         id="path4534"
         inkscape:connector-curvature="0" />
      <path
         d="m -168.05094,-731.5906 c 2.68,-0.56 5.16,-2.64 5.16,-6.04 0,-4.8 -4,-6.96 -10.8,-6.96 l -6.52,0 0,27.56 7.6,0 c 6.4,0 10.92,-2 10.92,-7.84 0,-4.68 -3.16,-6.16 -6.36,-6.72 z m -5.24,-10 c 4.08,0 6.52,0.84 6.52,4.24 0,2.92 -2.4,4.44 -5.48,4.44 l -4.16,0 0,-8.68 3.12,0 z m 0.68,21.52 -3.8,0 0,-9.92 4.52,0 c 3.32,0 6.2,1.24 6.2,5.12 0,4 -2.92,4.8 -6.92,4.8 z"
         style="font-style:normal;font-variant:normal;font-weight:normal;font-stretch:normal;font-family:'Fira Sans';-inkscape-font-specification:'Fira Sans';fill:#ffffff"
         id="path4536"
         inkscape:connector-curvature="0" />
      <path
         d="m -141.91406,-721.9506 0,-9.64 c 0,-4.4 -2.32,-7 -7.4,-7 -2.36,0 -4.68,0.48 -7.28,1.44 l 0.92,2.68 c 2.16,-0.72 4.12,-1.12 5.68,-1.12 2.92,0 4.4,1.12 4.4,4.16 l 0,1.56 -3.24,0 c -5.88,0 -9.28,2.44 -9.28,6.96 0,3.76 2.52,6.36 6.72,6.36 2.56,0 4.8,-0.96 6.28,-3.16 0.64,2.08 2,2.92 4.12,3.16 l 0.84,-2.56 c -1.08,-0.4 -1.76,-1 -1.76,-2.84 z m -8.64,2.64 c -2.4,0 -3.64,-1.32 -3.64,-3.8 0,-2.88 1.96,-4.32 5.84,-4.32 l 2.76,0 0,4.84 c -1.2,2.2 -2.8,3.28 -4.96,3.28 z"
         style="font-style:normal;font-variant:normal;font-weight:normal;font-stretch:normal;font-family:'Fira Sans';-inkscape-font-specification:'Fira Sans';fill:#ffffff"
         id="path4538"
         inkscape:connector-curvature="0" />
      <path
         d="m -121.95719,-738.1106 -14.24,0 0,3.12 10.04,0 -10.96,15.2 0,2.76 14.84,0 0.44,-3.08 -11.12,0 11,-15.2 0,-2.8 z"
         style="font-style:normal;font-variant:normal;font-weight:normal;font-stretch:normal;font-family:'Fira Sans';-inkscape-font-specification:'Fira Sans';fill:#ffffff"
         id="path4540"
         inkscape:connector-curvature="0" />
      <path
         d="m -102.61719,-721.9506 0,-9.64 c 0,-4.4 -2.32,-7 -7.4,-7 -2.36,0 -4.68,0.48 -7.28,1.44 l 0.92,2.68 c 2.16,-0.72 4.12,-1.12 5.68,-1.12 2.92,0 4.4,1.12 4.4,4.16 l 0,1.56 -3.24,0 c -5.88,0 -9.28,2.44 -9.28,6.96 0,3.76 2.52,6.36 6.72,6.36 2.56,0 4.8,-0.96 6.28,-3.16 0.64,2.08 2,2.92 4.12,3.16 l 0.84,-2.56 c -1.08,-0.4 -1.76,-1 -1.76,-2.84 z m -8.64,2.64 c -2.4,0 -3.64,-1.32 -3.64,-3.8 0,-2.88 1.96,-4.32 5.84,-4.32 l 2.76,0 0,4.84 c -1.2,2.2 -2.8,3.28 -4.96,3.28 z"
         style="font-style:normal;font-variant:normal;font-weight:normal;font-stretch:normal;font-family:'Fira Sans';-inkscape-font-specification:'Fira Sans';fill:#ffffff"
         id="path4542"
         inkscape:connector-curvature="0" />
      <path
         d="m -80.820312,-721.9506 0,-9.64 c 0,-4.4 -2.32,-7 -7.400001,-7 -2.36,0 -4.679999,0.48 -7.28,1.44 l 0.92,2.68 c 2.160001,-0.72 4.120001,-1.12 5.680001,-1.12 2.92,0 4.399999,1.12 4.399999,4.16 l 0,1.56 -3.24,0 c -5.879999,0 -9.28,2.44 -9.28,6.96 0,3.76 2.52,6.36 6.72,6.36 2.56,0 4.8,-0.96 6.28,-3.16 0.64,2.08 2,2.92 4.120001,3.16 l 0.839999,-2.56 c -1.079999,-0.4 -1.759999,-1 -1.759999,-2.84 z m -8.64,2.64 c -2.4,0 -3.64,-1.32 -3.64,-3.8 0,-2.88 1.96,-4.32 5.84,-4.32 l 2.759999,0 0,4.84 c -1.199999,2.2 -2.8,3.28 -4.959999,3.28 z"
         style="font-style:normal;font-variant:normal;font-weight:normal;font-stretch:normal;font-family:'Fira Sans';-inkscape-font-specification:'Fira Sans';fill:#ffffff"
         id="path4544"
         inkscape:connector-curvature="0" />
      <path
         d="m -64.063437,-738.5906 c -2.56,0 -4.520001,1.6 -5.640001,4.76 l -0.359999,-4.28 -3.160001,0 0,21.08 3.680001,0 0,-12.04 c 0.88,-4.04 2.399999,-5.92 5.039999,-5.92 0.760001,0 1.200001,0.08 1.840001,0.24 l 0.68,-3.6 c -0.640001,-0.16 -1.4,-0.24 -2.08,-0.24 z"
         style="font-style:normal;font-variant:normal;font-weight:normal;font-stretch:normal;font-family:'Fira Sans';-inkscape-font-specification:'Fira Sans';fill:#ffffff"
         id="path4546"
         inkscape:connector-curvature="0" />
    </g>
  </g>
</svg>
