<?xml version="1.0" encoding="UTF-8" standalone="no"?>
<!-- Created with Inkscape (http://www.inkscape.org/) -->

<svg
   xmlns:dc="http://purl.org/dc/elements/1.1/"
   xmlns:cc="http://creativecommons.org/ns#"
   xmlns:rdf="http://www.w3.org/1999/02/22-rdf-syntax-ns#"
   xmlns:svg="http://www.w3.org/2000/svg"
   xmlns="http://www.w3.org/2000/svg"
   xmlns:sodipodi="http://sodipodi.sourceforge.net/DTD/sodipodi-0.dtd"
   xmlns:inkscape="http://www.inkscape.org/namespaces/inkscape"
   width="25.4mm"
   height="29.017691mm"
   viewBox="0 0 90.000003 102.81858"
   id="svg8162"
   version="1.1"
   inkscape:version="0.91 r13725"
   sodipodi:docname="scalability.svg"
   inkscape:export-filename="/media/data/ari/trabajo/libbitcoin/libbitcoin/img/bg-btc-satoshi.png"
   inkscape:export-xdpi="84"
   inkscape:export-ydpi="84">
  <defs
     id="defs8164">
    <clipPath
       clipPathUnits="userSpaceOnUse"
       id="clipPath5836">
      <rect
         inkscape:export-ydpi="84.150002"
         inkscape:export-xdpi="84.150002"
         y="-1821.4224"
         x="1501.5691"
         height="383.14114"
         width="1352"
         id="rect5838"
         style="fill:#855f04;fill-opacity:1;stroke:none;stroke-width:0.5;stroke-miterlimit:4;stroke-dasharray:none" />
    </clipPath>
  </defs>
  <sodipodi:namedview
     id="base"
     pagecolor="#ffffff"
     bordercolor="#666666"
     borderopacity="1.0"
     inkscape:pageopacity="0.0"
     inkscape:pageshadow="2"
     inkscape:zoom="1.4"
     inkscape:cx="56.717563"
     inkscape:cy="80.402574"
     inkscape:document-units="px"
     inkscape:current-layer="layer1"
     showgrid="false"
     fit-margin-top="0"
     fit-margin-left="0"
     fit-margin-right="0"
     fit-margin-bottom="0"
     inkscape:window-width="1920"
     inkscape:window-height="1016"
     inkscape:window-x="0"
     inkscape:window-y="27"
     inkscape:window-maximized="1" />
  <metadata
     id="metadata8167">
    <rdf:RDF>
      <cc:Work
         rdf:about="">
        <dc:format>image/svg+xml</dc:format>
        <dc:type
           rdf:resource="http://purl.org/dc/dcmitype/StillImage" />
        <dc:title></dc:title>
      </cc:Work>
    </rdf:RDF>
  </metadata>
  <g
     inkscape:label="Capa 1"
     inkscape:groupmode="layer"
     id="layer1"
     transform="translate(4144.0739,2087.7768)">
    <g
       id="g5965"
       transform="matrix(1.6065404,0,0,1.6065404,-4150.484,-2087.7768)"
       inkscape:export-xdpi="84.150002"
       inkscape:export-ydpi="84.150002">
      <g
         id="g5699"
         display="none"
         style="display:none">
        <line
           id="line5701"
           y2="24.652"
           x2="18.989"
           y1="17.851"
           x1="7.3039999"
           stroke-miterlimit="10"
           display="inline"
           style="display:inline;fill:#000000;stroke:#8ad5dd;stroke-miterlimit:10" />
        <line
           id="line5703"
           y2="46.25"
           x2="7.3039999"
           y1="39.674999"
           x1="18.989"
           stroke-miterlimit="10"
           display="inline"
           style="display:inline;fill:#000000;stroke:#8ad5dd;stroke-miterlimit:10" />
        <line
           id="line5705"
           y2="46.25"
           x2="56.695999"
           y1="39.674999"
           x1="45.011002"
           stroke-miterlimit="10"
           display="inline"
           style="display:inline;fill:#000000;stroke:#8ad5dd;stroke-miterlimit:10" />
        <line
           id="line5707"
           y2="24.652"
           x2="45.011002"
           y1="17.851"
           x1="56.695999"
           stroke-miterlimit="10"
           display="inline"
           style="display:inline;fill:#000000;stroke:#8ad5dd;stroke-miterlimit:10" />
        <line
           id="line5709"
           y2="17.139999"
           x2="32"
           y1="3.2190001"
           x1="32"
           stroke-miterlimit="10"
           display="inline"
           style="display:inline;fill:#000000;stroke:#8ad5dd;stroke-miterlimit:10" />
        <line
           id="line5711"
           y2="61.109001"
           x2="32"
           y1="47.187"
           x1="32"
           stroke-miterlimit="10"
           display="inline"
           style="display:inline;fill:#000000;stroke:#8ad5dd;stroke-miterlimit:10" />
        <polygon
           id="polygon5713"
           points="56.696,46.422 32,60.68 7.304,46.422 7.304,17.906 32,3.648 56.696,17.906 "
           stroke-miterlimit="10"
           display="inline"
           style="display:inline;fill:#000000;stroke:#8ad5dd;stroke-width:2.5;stroke-miterlimit:10" />
        <polygon
           id="polygon5715"
           points="45.011,39.675 32,47.187 18.989,39.675 18.989,24.652 32,17.14 45.011,24.652 "
           stroke-miterlimit="10"
           display="inline"
           style="display:inline;fill:#000000;stroke:#8ad5dd;stroke-miterlimit:10" />
        <circle
           id="circle5717"
           r="3.2190001"
           cy="46.25"
           cx="56.695999"
           display="inline"
           style="display:inline;fill:#000000" />
        <circle
           id="circle5719"
           r="3.2190001"
           cy="17.851"
           cx="7.3039999"
           display="inline"
           style="display:inline;fill:#000000" />
        <circle
           id="circle5721"
           r="3.2190001"
           cy="17.851"
           cx="56.695999"
           display="inline"
           style="display:inline;fill:#000000" />
        <circle
           id="circle5723"
           r="3.2190001"
           cy="46.25"
           cx="7.3039999"
           display="inline"
           style="display:inline;fill:#000000" />
        <circle
           id="circle5725"
           r="3.2190001"
           cy="32.004002"
           cx="32"
           display="inline"
           style="display:inline;fill:#000000" />
        <circle
           id="circle5727"
           r="5.8800001"
           cy="32.004002"
           cx="32"
           stroke-miterlimit="10"
           display="inline"
           style="display:inline;fill:#000000;stroke:#db2b42;stroke-miterlimit:10" />
        <circle
           id="circle5729"
           r="3.2190001"
           cy="3.2190001"
           cx="32"
           display="inline"
           style="display:inline;fill:#000000" />
        <circle
           id="circle5731"
           r="3.2190001"
           cy="60.780998"
           cx="32"
           display="inline"
           style="display:inline;fill:#000000" />
      </g>
      <g
         id="g5733"
         display="none"
         style="display:none">
        <g
           id="g5735"
           display="inline"
           style="display:inline">
          <rect
             id="rect5737"
             height="13.52"
             width="1.001"
             transform="matrix(0.503,-0.8643,0.8643,0.503,-11.8332,21.9245)"
             y="14.491"
             x="12.646"
             style="fill:#000000" />
        </g>
        <g
           id="g5739"
           display="inline"
           style="display:inline">
          <rect
             id="rect5741"
             height="1"
             width="13.408"
             transform="matrix(0.8715,-0.4904,0.4904,0.8715,-19.3812,11.9698)"
             y="42.463001"
             x="6.4429998"
             style="fill:#000000" />
        </g>
        <g
           id="g5743"
           display="inline"
           style="display:inline">
          <rect
             id="rect5745"
             height="13.408"
             width="1"
             transform="matrix(0.4904,-0.8715,0.8715,0.4904,-11.5273,66.2117)"
             y="36.258999"
             x="50.354"
             style="fill:#000000" />
        </g>
        <g
           id="g5747"
           display="inline"
           style="display:inline">
          <rect
             id="rect5749"
             height="1.001"
             width="13.52"
             transform="matrix(0.8641,-0.5033,0.5033,0.8641,-3.7857,28.48)"
             y="20.750999"
             x="44.094002"
             style="fill:#000000" />
        </g>
        <g
           id="g5751"
           display="inline"
           style="display:inline">
          <rect
             id="rect5753"
             height="13.921"
             width="1"
             y="3.2190001"
             x="31.5"
             style="fill:#000000" />
        </g>
        <g
           id="g5755"
           display="inline"
           style="display:inline">
          <rect
             id="rect5757"
             height="13.922"
             width="1"
             y="47.187"
             x="31.5"
             style="fill:#000000" />
        </g>
        <g
           id="g5759"
           display="inline"
           style="display:inline">
          <path
             id="path5761"
             d="M 32,62.123 6.054,47.144 6.054,17.184 32,2.204 l 25.945,14.979 0,29.96 L 32,62.123 Z M 8.554,45.701 32,59.237 55.445,45.701 55.445,18.627 32,5.091 8.554,18.627 l 0,27.074 z"
             inkscape:connector-curvature="0"
             style="fill:#000000" />
        </g>
        <g
           id="g5763"
           display="inline"
           style="display:inline">
          <path
             id="path5765"
             d="m 32,47.764 -13.511,-7.8 0,-15.601 13.511,-7.8 13.511,7.8 0,15.602 L 32,47.764 Z M 19.49,39.386 32,46.61 44.511,39.386 44.511,24.941 32,17.717 l -12.51,7.224 0,14.445 z"
             inkscape:connector-curvature="0"
             style="fill:#000000" />
        </g>
        <g
           id="g5767"
           display="inline"
           style="display:inline">
          <circle
             id="circle5769"
             r="3.2190001"
             cy="46.25"
             cx="56.695999"
             style="fill:#000000" />
        </g>
        <g
           id="g5771"
           display="inline"
           style="display:inline">
          <circle
             id="circle5773"
             r="3.2190001"
             cy="17.851"
             cx="7.3039999"
             style="fill:#000000" />
        </g>
        <g
           id="g5775"
           display="inline"
           style="display:inline">
          <circle
             id="circle5777"
             r="3.2190001"
             cy="17.851"
             cx="56.695999"
             style="fill:#000000" />
        </g>
        <g
           id="g5779"
           display="inline"
           style="display:inline">
          <circle
             id="circle5781"
             r="3.2190001"
             cy="46.25"
             cx="7.3039999"
             style="fill:#000000" />
        </g>
        <g
           id="g5783"
           display="inline"
           style="display:inline">
          <circle
             id="circle5785"
             r="3.2190001"
             cy="32.004002"
             cx="32"
             style="fill:#000000" />
        </g>
        <g
           id="g5787"
           display="inline"
           style="display:inline">
          <path
             id="path5789"
             d="m 32,38.384 c -3.519,0 -6.381,-2.862 -6.381,-6.38 0,-3.518 2.862,-6.38 6.381,-6.38 3.518,0 6.38,2.862 6.38,6.38 0,3.518 -2.862,6.38 -6.38,6.38 z m 0,-11.76 c -2.967,0 -5.381,2.413 -5.381,5.38 0,2.967 2.414,5.38 5.381,5.38 2.967,0 5.38,-2.413 5.38,-5.38 0,-2.967 -2.413,-5.38 -5.38,-5.38 z"
             inkscape:connector-curvature="0"
             style="fill:#000000" />
        </g>
        <g
           id="g5791"
           display="inline"
           style="display:inline">
          <circle
             id="circle5793"
             r="3.2190001"
             cy="3.2190001"
             cx="32"
             style="fill:#000000" />
        </g>
        <g
           id="g5795"
           display="inline"
           style="display:inline">
          <circle
             id="circle5797"
             r="3.2190001"
             cy="60.780998"
             cx="32"
             style="fill:#000000" />
        </g>
      </g>
      <g
         id="g5799"
         display="none"
         style="display:none">
        <rect
           id="rect5801"
           height="398"
           width="804"
           display="inline"
           y="-237.661"
           x="-413.66101"
           style="display:inline;fill:#000000" />
      </g>
      <g
         id="g5803">
        <g
           id="g5805">
          <ellipse
             id="ellipse5807"
             ry="3.118"
             rx="3.115"
             cy="32.004002"
             cx="32"
             style="fill:#272822;fill-opacity:1" />
          <path
             id="path5809"
             d="m 32,38.701 c 3.688,0 6.689,-3.004 6.689,-6.696 0,-3.692 -3,-6.697 -6.689,-6.697 -3.689,0 -6.69,3.004 -6.69,6.696 0,3.692 3.001,6.697 6.69,6.697 z m 0,-11.393 c 2.586,0 4.689,2.106 4.689,4.696 0,2.59 -2.103,4.697 -4.689,4.697 -2.586,0 -4.69,-2.106 -4.69,-4.696 0,-2.59 2.104,-4.697 4.69,-4.697 z"
             inkscape:connector-curvature="0"
             style="fill:#c85637;fill-opacity:1" />
          <path
             id="path5811"
             d="m 60.011,18.293 c 0,-2.271 -1.846,-4.118 -4.115,-4.118 -1.174,0 -2.229,0.501 -2.979,1.294 L 35.83,5.592 C 36.007,5.133 36.114,4.639 36.114,4.118 36.115,1.848 34.269,0 32,0 c -2.27,0 -4.115,1.848 -4.115,4.118 0,0.521 0.107,1.015 0.284,1.474 l -17.086,9.876 c -0.75,-0.792 -1.805,-1.294 -2.979,-1.294 -2.269,0 -4.114,1.848 -4.114,4.118 0,1.923 1.33,3.531 3.114,3.981 l 0,19.55 C 5.32,42.273 3.99,43.88 3.99,45.804 c 0,2.271 1.846,4.118 4.114,4.118 1.104,0 2.103,-0.443 2.843,-1.154 l 17.139,9.906 c -0.118,0.384 -0.201,0.783 -0.201,1.205 0,2.274 1.846,4.121 4.115,4.121 2.269,0 4.114,-1.848 4.114,-4.119 0,-0.422 -0.082,-0.821 -0.201,-1.205 l 17.139,-9.907 c 0.74,0.711 1.739,1.154 2.843,1.154 2.27,0 4.115,-1.848 4.115,-4.118 0,-1.924 -1.33,-3.531 -3.115,-3.981 l 0,-19.55 c 1.786,-0.45 3.116,-2.057 3.116,-3.981 z m -4.115,-2.118 c 1.166,0 2.115,0.95 2.115,2.118 0,0.804 -0.455,1.496 -1.115,1.855 l 0,0 c -0.139,0.076 -0.289,0.134 -0.443,0.179 -0.017,0.005 -0.033,0.011 -0.05,0.016 -0.162,0.043 -0.331,0.068 -0.507,0.068 -0.176,0 -0.345,-0.026 -0.507,-0.068 -0.017,-0.004 -0.033,-0.011 -0.049,-0.015 -0.155,-0.045 -0.304,-0.104 -0.443,-0.18 -0.034,-0.018 -0.069,-0.035 -0.101,-0.055 -0.289,-0.178 -0.53,-0.423 -0.704,-0.713 -0.008,-0.012 -0.014,-0.026 -0.021,-0.038 -0.075,-0.13 -0.135,-0.269 -0.181,-0.415 -0.007,-0.021 -0.014,-0.042 -0.02,-0.064 -0.045,-0.16 -0.075,-0.326 -0.08,-0.499 l 0,0 c -10e-4,-0.024 -0.007,-0.046 -0.007,-0.07 0,-0.005 10e-4,-0.009 10e-4,-0.014 10e-4,-0.169 0.027,-0.332 0.065,-0.489 0.01,-0.041 0.025,-0.081 0.037,-0.121 0.036,-0.117 0.081,-0.23 0.136,-0.337 0.02,-0.039 0.04,-0.077 0.062,-0.115 0.067,-0.113 0.145,-0.219 0.231,-0.317 0.017,-0.02 0.032,-0.041 0.05,-0.06 0.113,-0.119 0.238,-0.227 0.376,-0.317 l 0,0 c 0.332,-0.219 0.728,-0.349 1.155,-0.349 z m -2.978,26.805 -7.329,-4.128 0,-13.395 7.366,-4.293 c 0.523,0.536 1.192,0.921 1.94,1.11 l 0,19.55 c -0.767,0.194 -1.449,0.598 -1.977,1.156 z M 33,55.9 l 0,-8.61 11.595,-6.702 7.347,4.139 c -0.095,0.346 -0.161,0.703 -0.161,1.079 0,0.443 0.089,0.862 0.219,1.263 L 34.891,56.958 C 34.377,56.447 33.724,56.083 33,55.9 Z M 29.108,56.957 12,47.068 c 0.13,-0.401 0.219,-0.82 0.219,-1.263 0,-0.376 -0.067,-0.733 -0.162,-1.079 L 19.404,40.588 31,47.29 31,55.9 c -0.724,0.183 -1.377,0.547 -1.892,1.057 z M 9.104,41.824 l 0,-19.55 c 0.748,-0.189 1.418,-0.573 1.941,-1.109 l 7.366,4.292 0,13.394 -7.328,4.128 C 10.554,42.421 9.872,42.018 9.104,41.824 Z M 32,18.76 l 11.589,6.699 0,13.399 L 32,45.557 20.41,38.859 l 0,-13.4 L 32,18.76 Z M 51.961,19.429 44.587,23.726 33,17.028 33,8.099 c 0.626,-0.158 1.19,-0.461 1.665,-0.87 l 17.277,9.987 c -0.094,0.346 -0.161,0.702 -0.161,1.077 10e-4,0.397 0.075,0.773 0.18,1.136 z M 29.885,4.118 C 29.885,2.951 30.834,2 32,2 c 1.166,0 2.114,0.95 2.114,2.118 0,0.156 -0.019,0.306 -0.051,0.453 -0.036,0.165 -0.096,0.32 -0.168,0.468 -0.014,0.03 -0.031,0.058 -0.047,0.087 -0.069,0.125 -0.148,0.244 -0.24,0.352 -0.014,0.017 -0.027,0.034 -0.042,0.05 -0.23,0.255 -0.52,0.455 -0.85,0.575 -0.224,0.082 -0.463,0.134 -0.716,0.134 -0.253,0 -0.492,-0.052 -0.716,-0.134 l 0,0 C 30.954,5.983 30.664,5.783 30.433,5.528 30.419,5.512 30.406,5.495 30.393,5.479 30.3,5.37 30.22,5.251 30.151,5.125 30.135,5.096 30.119,5.069 30.105,5.04 30.033,4.892 29.973,4.737 29.937,4.571 l 0,0 C 29.904,4.425 29.885,4.274 29.885,4.118 Z M 29.335,7.23 C 29.81,7.639 30.374,7.941 31,8.099 l 0,8.928 -11.588,6.698 -7.373,-4.297 c 0.105,-0.363 0.179,-0.739 0.179,-1.136 0,-0.375 -0.067,-0.732 -0.161,-1.078 L 29.335,7.23 Z M 5.99,18.293 c 0,-1.168 0.948,-2.118 2.114,-2.118 0.427,0 0.823,0.129 1.155,0.348 0.138,0.09 0.263,0.198 0.376,0.317 0.018,0.019 0.033,0.041 0.05,0.06 0.087,0.098 0.164,0.204 0.231,0.318 0.022,0.037 0.042,0.076 0.062,0.114 0.055,0.107 0.1,0.22 0.136,0.337 0.013,0.04 0.027,0.079 0.038,0.121 0.039,0.157 0.064,0.32 0.066,0.489 0,0.005 10e-4,0.009 10e-4,0.014 0,0.024 -0.006,0.047 -0.007,0.071 l 0,0 c -0.006,0.173 -0.036,0.34 -0.081,0.5 -0.006,0.021 -0.013,0.042 -0.02,0.063 -0.046,0.146 -0.106,0.285 -0.181,0.415 -0.007,0.012 -0.013,0.026 -0.021,0.038 -0.175,0.29 -0.416,0.535 -0.705,0.713 -0.033,0.02 -0.068,0.037 -0.101,0.055 l 0,0 C 8.964,20.224 8.814,20.282 8.66,20.327 8.643,20.332 8.627,20.338 8.61,20.343 8.448,20.386 8.279,20.411 8.103,20.411 7.927,20.411 7.758,20.385 7.596,20.343 7.579,20.339 7.563,20.332 7.547,20.328 7.392,20.283 7.243,20.224 7.104,20.148 6.444,19.789 5.99,19.097 5.99,18.293 Z m 0,27.512 c 0,-0.804 0.454,-1.496 1.114,-1.855 l 0,0 c 0.139,-0.076 0.288,-0.134 0.443,-0.179 0.017,-0.005 0.033,-0.011 0.05,-0.016 0.162,-0.043 0.331,-0.068 0.507,-0.068 0.176,0 0.344,0.026 0.507,0.068 0.017,0.004 0.033,0.011 0.05,0.016 0.154,0.045 0.303,0.104 0.443,0.179 0.043,0.024 0.089,0.044 0.13,0.071 l 0,0 c 0.279,0.178 0.511,0.422 0.681,0.706 0.015,0.025 0.028,0.052 0.042,0.078 0.064,0.119 0.117,0.244 0.158,0.375 0.009,0.03 0.02,0.06 0.028,0.09 0.042,0.158 0.069,0.323 0.073,0.494 l 0,0 c 0,0.014 0.004,0.027 0.004,0.041 0,0.076 -0.015,0.147 -0.022,0.221 -0.076,0.724 -0.513,1.336 -1.132,1.656 -0.29,0.149 -0.613,0.242 -0.961,0.242 C 6.938,47.923 5.99,46.973 5.99,45.805 Z M 32,62 c -1.166,0 -2.115,-0.95 -2.115,-2.119 0,-0.053 0.012,-0.104 0.016,-0.156 0.054,-0.728 0.473,-1.349 1.078,-1.687 0.007,-0.004 0.014,-0.008 0.022,-0.012 l 0,0 c 0.139,-0.076 0.289,-0.135 0.443,-0.18 0.017,-0.005 0.033,-0.011 0.049,-0.015 0.162,-0.043 0.331,-0.068 0.507,-0.068 0.176,0 0.345,0.026 0.507,0.068 0.017,0.004 0.033,0.011 0.05,0.016 0.155,0.045 0.304,0.104 0.443,0.179 l 0,0 c 0.007,0.004 0.014,0.008 0.021,0.011 0.605,0.338 1.023,0.959 1.077,1.688 0.004,0.052 0.016,0.102 0.016,0.156 C 34.115,61.05 33.166,62 32,62 Z M 58.011,45.805 c 0,1.168 -0.949,2.118 -2.115,2.118 -0.348,0 -0.671,-0.092 -0.96,-0.242 l 0,0 c -0.619,-0.32 -1.056,-0.932 -1.132,-1.656 l 0,0 c -0.008,-0.073 -0.022,-0.145 -0.022,-0.22 0,-0.014 0.004,-0.027 0.004,-0.041 l 0,0 c 0.003,-0.171 0.031,-0.335 0.073,-0.494 0.008,-0.031 0.019,-0.06 0.028,-0.09 0.041,-0.131 0.093,-0.256 0.157,-0.375 0.014,-0.026 0.027,-0.053 0.042,-0.078 0.17,-0.284 0.401,-0.528 0.68,-0.706 0.041,-0.026 0.086,-0.047 0.13,-0.071 l 0,0 c 0.139,-0.076 0.288,-0.134 0.443,-0.179 0.017,-0.005 0.033,-0.011 0.05,-0.016 0.162,-0.043 0.331,-0.068 0.507,-0.068 0.176,0 0.344,0.026 0.507,0.068 0.017,0.004 0.033,0.011 0.05,0.016 0.154,0.045 0.303,0.104 0.443,0.179 0.66,0.359 1.115,1.051 1.115,1.855 z"
             inkscape:connector-curvature="0"
             style="fill:#ffa022;fill-opacity:1" />
        </g>
      </g>
      <g
         id="g5813"
         display="none"
         style="display:none">
        <path
           id="path5815"
           d="M 32,0 C 14.327,0 0,14.327 0,32 0,49.673 14.327,64 32,64 49.673,64 64,49.673 64,32 64,14.327 49.673,0 32,0 Z"
           display="inline"
           inkscape:connector-curvature="0"
           style="display:inline;fill:#000000" />
        <polygon
           id="polygon5817"
           points="55.896,45.971 32,59.783 8.104,45.971 8.104,18.346 32,4.534 55.896,18.346 "
           stroke-miterlimit="10"
           display="inline"
           style="display:inline;fill:#000000;stroke:#000000;stroke-width:2;stroke-miterlimit:10" />
        <polygon
           id="polygon5819"
           points="44.589,39.436 32,46.713 19.411,39.436 19.411,24.882 32,17.605 44.589,24.882 "
           stroke-miterlimit="10"
           display="inline"
           style="display:inline;fill:#000000;stroke:#000000;stroke-width:2;stroke-miterlimit:10" />
        <ellipse
           id="ellipse5821"
           ry="5.6960001"
           rx="5.6900001"
           cy="32.004002"
           cx="32"
           stroke-miterlimit="10"
           display="inline"
           style="display:inline;fill:#000000;stroke:#000000;stroke-width:2;stroke-miterlimit:10" />
        <line
           id="line5823"
           y2="24.882"
           x2="19.410999"
           y1="18.292999"
           x1="8.1040001"
           stroke-miterlimit="10"
           display="inline"
           style="display:inline;fill:none;stroke:#000000;stroke-width:2;stroke-miterlimit:10" />
        <line
           id="line5825"
           y2="45.805"
           x2="8.1040001"
           y1="39.436001"
           x1="19.410999"
           stroke-miterlimit="10"
           display="inline"
           style="display:inline;fill:none;stroke:#000000;stroke-width:2;stroke-miterlimit:10" />
        <line
           id="line5827"
           y2="45.805"
           x2="55.896"
           y1="39.436001"
           x1="44.589001"
           stroke-miterlimit="10"
           display="inline"
           style="display:inline;fill:none;stroke:#000000;stroke-width:2;stroke-miterlimit:10" />
        <line
           id="line5829"
           y2="24.882"
           x2="44.589001"
           y1="18.292999"
           x1="55.896"
           stroke-miterlimit="10"
           display="inline"
           style="display:inline;fill:none;stroke:#000000;stroke-width:2;stroke-miterlimit:10" />
        <line
           id="line5831"
           y2="17.605"
           x2="32"
           y1="4.118"
           x1="32"
           stroke-miterlimit="10"
           display="inline"
           style="display:inline;fill:none;stroke:#000000;stroke-width:2;stroke-miterlimit:10" />
        <line
           id="line5833"
           y2="60.199001"
           x2="32"
           y1="46.713001"
           x1="32"
           stroke-miterlimit="10"
           display="inline"
           style="display:inline;fill:none;stroke:#000000;stroke-width:2;stroke-miterlimit:10" />
        <ellipse
           id="ellipse5835"
           ry="3.118"
           rx="3.115"
           cy="32.004002"
           cx="32"
           display="inline"
           style="display:inline" />
        <ellipse
           id="ellipse5837"
           ry="3.118"
           rx="3.115"
           cy="45.805"
           cx="55.896"
           stroke-miterlimit="10"
           display="inline"
           style="display:inline;fill:#000000;stroke:#000000;stroke-width:2;stroke-miterlimit:10" />
        <ellipse
           id="ellipse5839"
           ry="3.118"
           rx="3.115"
           cy="18.292999"
           cx="8.1040001"
           stroke-miterlimit="10"
           display="inline"
           style="display:inline;fill:#000000;stroke:#000000;stroke-width:2;stroke-miterlimit:10" />
        <ellipse
           id="ellipse5841"
           ry="3.118"
           rx="3.115"
           cy="18.292999"
           cx="55.896"
           stroke-miterlimit="10"
           display="inline"
           style="display:inline;fill:#000000;stroke:#000000;stroke-width:2;stroke-miterlimit:10" />
        <ellipse
           id="ellipse5843"
           ry="3.118"
           rx="3.115"
           cy="45.805"
           cx="8.1040001"
           stroke-miterlimit="10"
           display="inline"
           style="display:inline;fill:#000000;stroke:#000000;stroke-width:2;stroke-miterlimit:10" />
        <ellipse
           id="ellipse5845"
           ry="3.118"
           rx="3.115"
           cy="4.118"
           cx="32"
           stroke-miterlimit="10"
           display="inline"
           style="display:inline;fill:#000000;stroke:#000000;stroke-width:2;stroke-miterlimit:10" />
        <ellipse
           id="ellipse5847"
           ry="3.118"
           rx="3.115"
           cy="59.882"
           cx="32"
           stroke-miterlimit="10"
           display="inline"
           style="display:inline;fill:#000000;stroke:#000000;stroke-width:2;stroke-miterlimit:10" />
      </g>
      <g
         id="g5849"
         display="none"
         style="display:none">
        <g
           id="g5851"
           display="inline"
           style="display:inline">
          <path
             id="path5853"
             d="M 32,0 C 14.327,0 0,14.327 0,32 0,49.673 14.327,64 32,64 49.673,64 64,49.673 64,32 64,14.327 49.673,0 32,0 Z"
             inkscape:connector-curvature="0"
             style="fill:#000000" />
        </g>
        <g
           id="g5855"
           display="inline"
           style="display:inline">
          <polygon
             id="polygon5857"
             points="55.896,45.971 32,59.783 8.104,45.971 8.104,18.346 32,4.534 55.896,18.346 "
             style="fill:#000000" />
          <path
             id="path5859"
             d="M 32,60.939 7.104,46.548 7.104,17.769 32,3.378 l 24.896,14.391 0,28.779 L 32,60.939 Z M 9.104,45.394 32,58.628 54.896,45.394 54.896,18.923 32,5.689 9.104,18.923 l 0,26.471 z"
             inkscape:connector-curvature="0" />
        </g>
        <g
           id="g5861"
           display="inline"
           style="display:inline">
          <polygon
             id="polygon5863"
             points="44.589,39.436 32,46.713 19.411,39.436 19.411,24.882 32,17.605 44.589,24.882 "
             style="fill:#000000" />
          <path
             id="path5865"
             d="m 32,47.868 -13.59,-7.854 0,-15.709 13.59,-7.855 13.589,7.855 0,15.708 L 32,47.868 Z M 20.41,38.859 32,45.557 l 11.589,-6.698 0,-13.4 L 32,18.76 l -11.59,6.699 0,13.4 z"
             inkscape:connector-curvature="0" />
        </g>
        <g
           id="g5867"
           display="inline"
           style="display:inline">
          <ellipse
             id="ellipse5869"
             ry="5.6960001"
             rx="5.6900001"
             cy="32.004002"
             cx="32"
             style="fill:#000000" />
          <path
             id="path5871"
             d="m 32,38.701 c -3.689,0 -6.69,-3.004 -6.69,-6.696 0,-3.692 3.001,-6.696 6.69,-6.696 3.688,0 6.689,3.004 6.689,6.696 0,3.692 -3,6.696 -6.689,6.696 z m 0,-11.393 c -2.586,0 -4.69,2.106 -4.69,4.696 0,2.59 2.104,4.696 4.69,4.696 2.586,0 4.689,-2.106 4.689,-4.696 0,-2.59 -2.103,-4.696 -4.689,-4.696 z"
             inkscape:connector-curvature="0" />
        </g>
        <g
           id="g5873"
           display="inline"
           style="display:inline">
          <rect
             id="rect5875"
             height="13.086"
             width="2.0009999"
             transform="matrix(0.5035,-0.864,0.864,0.5035,-11.8213,22.6047)"
             y="15.045"
             x="12.757" />
        </g>
        <g
           id="g5877"
           display="inline"
           style="display:inline">
          <rect
             id="rect5879"
             height="2"
             width="12.977"
             transform="matrix(0.8711,-0.4912,0.4912,0.8711,-19.1607,12.2531)"
             y="41.619999"
             x="7.2690001" />
        </g>
        <g
           id="g5881"
           display="inline"
           style="display:inline">
          <rect
             id="rect5883"
             height="12.977"
             width="2"
             transform="matrix(0.4908,-0.8713,0.8713,0.4908,-11.5504,65.4774)"
             y="36.132"
             x="49.242001" />
        </g>
        <g
           id="g5885"
           display="inline"
           style="display:inline">
          <rect
             id="rect5887"
             height="2.0009999"
             width="13.086"
             transform="matrix(0.8639,-0.5037,0.5037,0.8639,-4.0347,28.245)"
             y="20.587"
             x="43.699001" />
        </g>
        <g
           id="g5889"
           display="inline"
           style="display:inline">
          <rect
             id="rect5891"
             height="13.486"
             width="2"
             y="4.118"
             x="31" />
        </g>
        <g
           id="g5893"
           display="inline"
           style="display:inline">
          <rect
             id="rect5895"
             height="13.486"
             width="2"
             y="46.712002"
             x="31" />
        </g>
        <g
           id="g5897"
           display="inline"
           style="display:inline">
          <ellipse
             id="ellipse5899"
             ry="3.118"
             rx="3.115"
             cy="32.004002"
             cx="32" />
        </g>
        <g
           id="g5901"
           display="inline"
           style="display:inline">
          <ellipse
             id="ellipse5903"
             ry="3.118"
             rx="3.115"
             cy="45.805"
             cx="55.896"
             style="fill:#000000" />
          <path
             id="path5905"
             d="m 55.896,49.923 c -2.269,0 -4.114,-1.848 -4.114,-4.118 0,-2.27 1.846,-4.118 4.114,-4.118 2.27,0 4.115,1.848 4.115,4.118 0,2.27 -1.846,4.118 -4.115,4.118 z m 0,-6.236 c -1.166,0 -2.114,0.95 -2.114,2.118 0,1.168 0.948,2.118 2.114,2.118 1.166,0 2.115,-0.95 2.115,-2.118 0,-1.168 -0.949,-2.118 -2.115,-2.118 z"
             inkscape:connector-curvature="0" />
        </g>
        <g
           id="g5907"
           display="inline"
           style="display:inline">
          <ellipse
             id="ellipse5909"
             ry="3.118"
             rx="3.115"
             cy="18.292999"
             cx="8.1040001"
             style="fill:#000000" />
          <path
             id="path5911"
             d="m 8.104,22.411 c -2.269,0 -4.114,-1.848 -4.114,-4.118 0,-2.27 1.846,-4.118 4.114,-4.118 2.27,0 4.115,1.848 4.115,4.118 0,2.27 -1.846,4.118 -4.115,4.118 z m 0,-6.236 c -1.166,0 -2.114,0.95 -2.114,2.118 0,1.168 0.948,2.118 2.114,2.118 1.166,0 2.115,-0.95 2.115,-2.118 0,-1.168 -0.949,-2.118 -2.115,-2.118 z"
             inkscape:connector-curvature="0" />
        </g>
        <g
           id="g5913"
           display="inline"
           style="display:inline">
          <ellipse
             id="ellipse5915"
             ry="3.118"
             rx="3.115"
             cy="18.292999"
             cx="55.896"
             style="fill:#000000" />
          <path
             id="path5917"
             d="m 55.896,22.411 c -2.269,0 -4.114,-1.848 -4.114,-4.118 0,-2.27 1.846,-4.118 4.114,-4.118 2.27,0 4.115,1.848 4.115,4.118 0,2.27 -1.846,4.118 -4.115,4.118 z m 0,-6.236 c -1.166,0 -2.114,0.95 -2.114,2.118 0,1.168 0.948,2.118 2.114,2.118 1.166,0 2.115,-0.95 2.115,-2.118 0,-1.168 -0.949,-2.118 -2.115,-2.118 z"
             inkscape:connector-curvature="0" />
        </g>
        <g
           id="g5919"
           display="inline"
           style="display:inline">
          <ellipse
             id="ellipse5921"
             ry="3.118"
             rx="3.115"
             cy="45.805"
             cx="8.1040001"
             style="fill:#000000" />
          <path
             id="path5923"
             d="m 8.104,49.923 c -2.269,0 -4.114,-1.848 -4.114,-4.118 0,-2.27 1.846,-4.118 4.114,-4.118 2.27,0 4.115,1.848 4.115,4.118 0,2.27 -1.846,4.118 -4.115,4.118 z m 0,-6.236 c -1.166,0 -2.114,0.95 -2.114,2.118 0,1.168 0.948,2.118 2.114,2.118 1.166,0 2.115,-0.95 2.115,-2.118 0,-1.168 -0.949,-2.118 -2.115,-2.118 z"
             inkscape:connector-curvature="0" />
        </g>
        <g
           id="g5925"
           display="inline"
           style="display:inline">
          <ellipse
             id="ellipse5927"
             ry="3.118"
             rx="3.115"
             cy="4.118"
             cx="32"
             style="fill:#000000" />
          <path
             id="path5929"
             d="M 32,8.237 C 29.73,8.237 27.885,6.389 27.885,4.119 27.885,1.849 29.731,0 32,0 c 2.269,0 4.114,1.848 4.114,4.118 0,2.27 -1.845,4.119 -4.114,4.119 z M 32,2 c -1.166,0 -2.115,0.95 -2.115,2.118 0,1.168 0.949,2.119 2.115,2.119 1.166,0 2.114,-0.95 2.114,-2.118 C 34.114,2.951 33.166,2 32,2 Z"
             inkscape:connector-curvature="0" />
        </g>
        <g
           id="g5931"
           display="inline"
           style="display:inline">
          <ellipse
             id="ellipse5933"
             ry="3.118"
             rx="3.115"
             cy="59.882"
             cx="32"
             style="fill:#000000" />
          <path
             id="path5935"
             d="m 32,64 c -2.27,0 -4.115,-1.848 -4.115,-4.119 0,-2.271 1.846,-4.118 4.115,-4.118 2.269,0 4.114,1.848 4.114,4.118 C 36.115,62.153 34.269,64 32,64 Z m 0,-6.237 c -1.166,0 -2.115,0.95 -2.115,2.118 0,1.169 0.949,2.119 2.115,2.119 1.166,0 2.114,-0.95 2.114,-2.119 C 34.115,58.713 33.166,57.763 32,57.763 Z"
             inkscape:connector-curvature="0" />
        </g>
      </g>
      <g
         id="g5937"
         display="none"
         style="display:none">
        <g
           id="g5939"
           display="inline"
           style="display:inline">
          <path
             id="path5941"
             d="m 3.165,-5.018 c -0.509,0 -0.837,0.045 -1.031,0.09 l 0,6.588 C 2.328,1.705 2.642,1.705 2.926,1.705 4.988,1.72 6.331,0.584 6.331,-1.821 6.346,-3.912 5.121,-5.018 3.165,-5.018 Z"
             inkscape:connector-curvature="0" />
          <path
             id="path5943"
             d="m 10.213,-14.165 -56.194,0 c -2.152,0 -3.903,1.751 -3.903,3.903 l 0,17.211 c 0,2.152 1.751,3.903 3.902,3.903 l 56.194,0 c 2.152,0 3.903,-1.751 3.903,-3.903 l 0,-17.211 c 10e-4,-2.152 -1.75,-3.903 -3.902,-3.903 z m -46.501,13.121 c 0,3.107 -1.568,4.586 -4.198,4.586 -2.539,0 -4.033,-1.404 -4.033,-4.616 l 0,-5.617 2.285,0 0,5.796 c 0,1.733 0.657,2.614 1.822,2.614 1.195,0 1.853,-0.836 1.853,-2.614 l 0,-5.796 2.271,0 0,5.647 z m 7.906,-0.194 c -0.777,0.732 -1.927,1.061 -3.271,1.061 -0.299,0 -0.567,-0.015 -0.777,-0.045 l 0,3.6 -2.255,0 0,-9.934 c 0.701,-0.12 1.687,-0.209 3.076,-0.209 1.404,0 2.405,0.269 3.077,0.807 0.643,0.508 1.075,1.344 1.075,2.331 0.001,0.985 -0.327,1.821 -0.925,2.389 z m 8.294,4.616 -6.289,0 0,-10.069 2.285,0 0,8.156 4.004,0 0,1.913 z m 4.677,0.164 c -2.987,0 -4.735,-2.255 -4.735,-5.124 0,-3.018 1.928,-5.273 4.9,-5.273 3.092,0 4.78,2.315 4.78,5.094 0,3.301 -2.002,5.303 -4.945,5.303 z m 11.836,-0.164 -0.777,-2.584 -2.883,0 -0.717,2.584 -2.36,0 3.077,-10.068 2.988,0 3.122,10.068 -2.45,0 z M 7.078,2.182 c -1.061,0.882 -2.674,1.3 -4.646,1.3 -1.18,0 -2.017,-0.074 -2.584,-0.149 l 0,-9.889 c 0.836,-0.135 1.927,-0.209 3.078,-0.209 1.912,0 3.151,0.343 4.123,1.076 1.045,0.776 1.703,2.017 1.703,3.794 0,1.927 -0.702,3.256 -1.674,4.077 z"
             inkscape:connector-curvature="0" />
        </g>
        <g
           id="g5945"
           display="inline"
           style="display:inline">
          <polygon
             id="polygon5947"
             points="51.995,14.21 57.051,18.124 55.109,11.792 60.202,7.85 53.903,7.85 51.98,1.537 50.056,7.85 43.763,7.85 48.866,11.791 46.932,18.129 " />
          <path
             id="path5949"
             d="m 71.718,-11.489 -39.374,0 0,7.961 -9.784,0 9.784,16.372 0,1.026 c 0,14.42 17.16,23.756 18.687,24.558 l 0,2.558 -10.172,0 -4.681,11.525 31.705,0 -4.681,-11.525 -10.171,0 0,-2.557 C 54.557,37.63 71.719,28.287 71.719,13.871 l 0,-1.314 9.611,-16.084 -9.611,0 -10e-4,-7.962 0,0 z M 32.344,8.945 26.086,-1.528 l 6.258,0 0,10.473 z m 25.141,3.619 3.423,11.155 -8.912,-6.899 -8.906,6.894 3.401,-11.148 -8.743,-6.75 10.79,0 3.441,-11.297 3.441,11.297 10.785,0 -8.72,6.748 z m 20.319,-14.092 -6.086,10.184 0,-10.184 6.086,0 z"
             inkscape:connector-curvature="0" />
        </g>
        <g
           id="g5951"
           display="inline"
           style="display:inline">
          <path
             id="path5953"
             d="m 16.974,60.511 c -1.576,0 -2.858,1.282 -2.858,2.858 l 0,58.283 c 0,1.576 1.282,2.858 2.858,2.858 l 31.941,0 c 1.576,0 2.858,-1.282 2.858,-2.858 l 0,-58.283 c 10e-4,-1.576 -1.282,-2.858 -2.858,-2.858 l -31.941,0 z m 21.856,2.094 c 0.475,0 0.863,0.387 0.863,0.863 0,0.476 -0.387,0.863 -0.863,0.863 -0.475,0 -0.863,-0.387 -0.863,-0.863 0,-0.476 0.388,-0.863 0.863,-0.863 z m -2.371,0 c 0.475,0 0.863,0.387 0.863,0.863 0,0.476 -0.387,0.863 -0.863,0.863 -0.475,0 -0.863,-0.387 -0.863,-0.863 0,-0.476 0.387,-0.863 0.863,-0.863 z m -9.4,0 4.23,0 c 0.475,0 0.862,0.387 0.862,0.863 0,0.475 -0.387,0.863 -0.862,0.863 l -4.23,0 c -0.475,0 -0.862,-0.387 -0.862,-0.862 0,-0.477 0.386,-0.864 0.862,-0.864 z m 9.598,58.78 -7.425,0 c -0.617,0 -1.119,-0.502 -1.119,-1.119 0,-0.618 0.502,-1.121 1.119,-1.121 l 7.425,0 c 0.617,0 1.12,0.503 1.12,1.12 0,0.617 -0.502,1.12 -1.12,1.12 z m 11.76,-5.356 -30.944,0 0,-49.6 30.944,0 0,49.6 z"
             inkscape:connector-curvature="0" />
        </g>
      </g>
    </g>
  </g>
</svg>
