<?xml version="1.0" encoding="UTF-8" standalone="no"?>
<!-- Created with Inkscape (http://www.inkscape.org/) -->

<svg
   xmlns:dc="http://purl.org/dc/elements/1.1/"
   xmlns:cc="http://creativecommons.org/ns#"
   xmlns:rdf="http://www.w3.org/1999/02/22-rdf-syntax-ns#"
   xmlns:svg="http://www.w3.org/2000/svg"
   xmlns="http://www.w3.org/2000/svg"
   xmlns:sodipodi="http://sodipodi.sourceforge.net/DTD/sodipodi-0.dtd"
   xmlns:inkscape="http://www.inkscape.org/namespaces/inkscape"
   width="25.400002mm"
   height="25.341333mm"
   viewBox="0 0 90.00001 89.792119"
   id="svg8162"
   version="1.1"
   inkscape:version="0.91 r13725"
   sodipodi:docname="setupable.svg"
   inkscape:export-filename="/media/data/ari/trabajo/libbitcoin/libbitcoin/img/bg-btc-satoshi.png"
   inkscape:export-xdpi="84"
   inkscape:export-ydpi="84">
  <defs
     id="defs8164">
    <clipPath
       clipPathUnits="userSpaceOnUse"
       id="clipPath5836">
      <rect
         inkscape:export-ydpi="84.150002"
         inkscape:export-xdpi="84.150002"
         y="-1821.4224"
         x="1501.5691"
         height="383.14114"
         width="1352"
         id="rect5838"
         style="fill:#855f04;fill-opacity:1;stroke:none;stroke-width:0.5;stroke-miterlimit:4;stroke-dasharray:none" />
    </clipPath>
  </defs>
  <sodipodi:namedview
     id="base"
     pagecolor="#ffffff"
     bordercolor="#666666"
     borderopacity="1.0"
     inkscape:pageopacity="0.0"
     inkscape:pageshadow="2"
     inkscape:zoom="0.7"
     inkscape:cx="-32.26661"
     inkscape:cy="106.51532"
     inkscape:document-units="px"
     inkscape:current-layer="layer1"
     showgrid="false"
     fit-margin-top="0"
     fit-margin-left="0"
     fit-margin-right="0"
     fit-margin-bottom="0"
     inkscape:window-width="1920"
     inkscape:window-height="1016"
     inkscape:window-x="0"
     inkscape:window-y="27"
     inkscape:window-maximized="1" />
  <metadata
     id="metadata8167">
    <rdf:RDF>
      <cc:Work
         rdf:about="">
        <dc:format>image/svg+xml</dc:format>
        <dc:type
           rdf:resource="http://purl.org/dc/dcmitype/StillImage" />
        <dc:title></dc:title>
      </cc:Work>
    </rdf:RDF>
  </metadata>
  <g
     inkscape:label="Capa 1"
     inkscape:groupmode="layer"
     id="layer1"
     transform="translate(3878.3596,1922.8448)">
    <g
       id="g5840"
       transform="matrix(1.2417835,0,0,1.2417835,-3856.1429,241.31221)"
       inkscape:export-xdpi="84.150002"
       inkscape:export-ydpi="84.150002">
      <path
         sodipodi:nodetypes="ccccccccsccssccccssscccssscccssccc"
         style="fill:#ffa022;fill-opacity:1;stroke:#ffa022;stroke-width:1;stroke-miterlimit:4;stroke-dasharray:none;stroke-opacity:1"
         inkscape:connector-curvature="0"
         d="m 38.218419,-1687.5683 c -4.268,0 -7.778,3.313 -8.172,7.505 l -46.559,0 -0.056,0 -0.084,0 c -0.421,0.028 -0.758,0.453 -0.702,0.878 0.028,0.425 0.449,0.765 0.842,0.708 l 46.559,0 c 0.394,4.191 3.904,7.505 8.172,7.505 4.24,0 7.751,-3.313 8.172,-7.505 l 6.853,0 c 0.421,0.028 0.814,-0.368 0.814,-0.793 0,-0.425 -0.394,-0.793 -0.814,-0.793 l -6.853,0 c -0.421,-4.192 -3.931,-7.505 -8.172,-7.505 z m 0,1.642 c 3.651,0 6.6,2.974 6.6,6.655 0,3.71 -2.948,6.712 -6.6,6.712 -3.679,0 -6.655,-3.002 -6.655,-6.712 0,-3.681 2.977,-6.655 6.655,-6.655 z m 0,3.115 c -1.938,0 -3.538,1.586 -3.538,3.54 0,1.954 1.601,3.568 3.538,3.568 1.938,0 3.511,-1.614 3.511,-3.568 0,-1.954 -1.572,-3.54 -3.511,-3.54 z m 0,1.586 c 1.067,0 1.91,0.878 1.91,1.954 0,1.104 -0.843,1.954 -1.91,1.954 -1.095,0 -1.938,-0.85 -1.938,-1.954 10e-4,-1.076 0.844,-1.954 1.938,-1.954 z"
         id="path5801" />
      <path
         sodipodi:nodetypes="ccccccccscsssccccssscccssscccssccc"
         id="path5829"
         d="m -1.4605815,-1714.8973 c -4.269,0 -7.75,3.285 -8.144,7.477 l -6.8799995,0 -0.14,0 -0.056,0 c -0.421,0.057 -0.757999,0.51 -0.702,0.906 0.056,0.425 0.505,0.765 0.898,0.708 l 6.8799995,0 c 0.394,4.19 3.875,7.447 8.144,7.447 4.269,0 7.807,-3.257 8.2,-7.447 l 46.5319995,0 c 0.421,0 0.814,-0.396 0.814,-0.821 0,-0.396 -0.394,-0.793 -0.814,-0.793 l -46.5319995,0 c -0.393,-4.191 -3.931,-7.477 -8.2,-7.477 z m 0,1.586 c 3.679,0 6.627,3.002 6.627,6.684 0,3.709 -2.948,6.711 -6.627,6.711 -3.679,0 -6.627,-3.002 -6.627,-6.711 0,-3.682 2.949,-6.684 6.627,-6.684 z m 0.028,3.116 c -1.938,0 -3.538,1.613 -3.538,3.568 0,1.953 1.601,3.567 3.538,3.567 1.938,0 3.51,-1.614 3.51,-3.567 0,-1.955 -1.572,-3.568 -3.51,-3.568 z m 0,1.613 c 1.067,0 1.938,0.879 1.938,1.955 0,1.104 -0.871,1.953 -1.938,1.953 -1.095,0 -1.938,-0.849 -1.938,-1.953 0.001,-1.076 0.843,-1.955 1.938,-1.955 z"
         inkscape:connector-curvature="0"
         style="fill:#c85637;fill-opacity:1;stroke:#c85637;stroke-width:1;stroke-miterlimit:4;stroke-dasharray:none;stroke-opacity:1" />
      <path
         sodipodi:nodetypes="ccccccccscsscccccssscccssscccssscc"
         id="path5831"
         d="m 18.365419,-1742.2813 c -4.24,0 -7.75,3.313 -8.172,7.504 l -26.706,0 -0.056,0 -0.084,0 c -0.421,0.028 -0.758,0.453 -0.702,0.85 0.028,0.425 0.449,0.765 0.842,0.736 l 26.706,0 c 0.394,4.191 3.904,7.505 8.172,7.505 4.269,0 7.778,-3.313 8.172,-7.505 l 26.706,0 c 0.421,0 0.814,-0.368 0.814,-0.793 0,-0.425 -0.394,-0.821 -0.814,-0.793 l -26.706,0 c -0.394,-4.192 -3.904,-7.504 -8.172,-7.504 z m 0,1.613 c 3.679,0 6.627,2.974 6.627,6.684 0,3.71 -2.948,6.684 -6.627,6.684 -3.65,0 -6.627,-2.974 -6.627,-6.684 0,-3.71 2.977,-6.684 6.627,-6.684 z m 0,3.144 c -1.938,0 -3.51,1.586 -3.51,3.54 0,1.954 1.573,3.54 3.51,3.54 1.937,0 3.511,-1.586 3.511,-3.54 0,-1.954 -1.574,-3.54 -3.511,-3.54 z m 0,1.585 c 1.096,0 1.938,0.85 1.938,1.954 0,1.076 -0.842,1.954 -1.938,1.954 -1.066,0 -1.938,-0.878 -1.938,-1.954 0,-1.104 0.872,-1.954 1.938,-1.954 z"
         inkscape:connector-curvature="0"
         style="fill:#272822;fill-opacity:1;stroke:#272822;stroke-width:1;stroke-miterlimit:4;stroke-dasharray:none;stroke-opacity:1" />
    </g>
  </g>
</svg>
